<?xml version="1.0" encoding="UTF-8"?>
<svg width="40px" height="38px" viewBox="0 0 40 38" version="1.1" xmlns="http://www.w3.org/2000/svg" xmlns:xlink="http://www.w3.org/1999/xlink">
    <!-- Generator: Sketch 52.6 (67491) - http://www.bohemiancoding.com/sketch -->
    <title>guarantee</title>
    <desc>Created with Sketch.</desc>
    <g id="--" stroke="none" stroke-width="1" fill="none" fill-rule="evenodd">
        <g id="01_Why-choose-Unified" transform="translate(-558.000000, -1461.000000)">
            <rect fill="#FFFFFF" x="0" y="0" width="1366" height="3695"></rect>
            <g id="Group-10" transform="translate(193.000000, 1273.000000)">
                <rect id="BG-Copy" fill="#F4F8FC" x="0" y="0" width="980" height="416" rx="4"></rect>
                <path d="M402.857344,201.286914 C402.329531,199.684174 402.554531,197.2783 401.182656,195.420669 C399.8,193.548404 397.395234,193.016251 396.037344,192.042349 C394.69375,191.078713 393.44375,188.981743 391.183672,188.258517 C388.987344,187.555671 386.741406,188.509424 385,188.509424 C383.258828,188.509424 381.013047,187.555441 378.816328,188.258441 C376.556641,188.981513 375.305625,191.078942 373.962891,192.042119 C372.606484,193.014872 370.199922,193.548481 368.8175,195.420439 C367.446797,197.276538 367.669531,199.687928 367.142656,201.286838 C366.64125,202.808598 365,204.634972 365,207.000164 C365,209.366811 366.639375,211.186136 367.142656,212.713413 C367.670469,214.316154 367.445469,216.722027 368.817344,218.579658 C370.199922,220.452 372.604609,220.984076 373.962656,221.958055 C375.306016,222.921538 376.55625,225.018661 378.816328,225.74181 C381.011172,226.444197 383.260625,225.490903 385,225.490903 C386.736953,225.490903 388.991641,226.443201 391.183672,225.741887 C393.443438,225.018815 394.693672,222.921844 396.037109,221.958208 C397.393516,220.985455 399.800078,220.451846 401.1825,218.579888 C402.553281,216.723712 402.330391,214.312553 402.857344,212.71349 C403.35875,211.191652 405,209.365279 405,207.000164 C405,204.63367 403.361016,202.814881 402.857344,201.286914 Z M392.198672,202.082002 C392.808906,202.680425 392.808906,203.650574 392.198672,204.24892 L384.377891,211.918325 C383.767656,212.516748 382.778281,212.516671 382.168125,211.918325 L377.801406,207.636127 C377.191172,207.037704 377.191094,206.067556 377.801328,205.469209 C378.411563,204.870863 379.401016,204.870786 380.011016,205.469209 L383.272969,208.667949 L389.988828,202.082079 C390.599063,201.483656 391.588437,201.483656 392.198672,202.082002 Z" id="Shape" fill="#00A2F9" fill-rule="nonzero"></path>
            </g>
        </g>
    </g>
</svg>