<?xml version="1.0" encoding="UTF-8"?>
<svg width="24px" height="38px" viewBox="0 0 24 38" version="1.1" xmlns="http://www.w3.org/2000/svg" xmlns:xlink="http://www.w3.org/1999/xlink">
    <!-- Generator: Sketch 52.6 (67491) - http://www.bohemiancoding.com/sketch -->
    <title>prices</title>
    <desc>Created with Sketch.</desc>
    <g id="--" stroke="none" stroke-width="1" fill="none" fill-rule="evenodd">
        <g id="01_Why-choose-Unified" transform="translate(-864.000000, -1461.000000)">
            <rect fill="#FFFFFF" x="0" y="0" width="1366" height="3695"></rect>
            <g id="Group-10" transform="translate(193.000000, 1273.000000)">
                <rect id="BG-Copy" fill="#F4F8FC" x="0" y="0" width="980" height="416" rx="4"></rect>
                <path d="M694.320164,200.873016 C694.762982,201.460679 695.007295,202.175406 694.99966,202.913956 L694.99966,222.759525 C694.99966,222.767466 694.99966,222.767466 694.99966,222.775407 C694.984391,224.570165 693.571954,226.0155 691.846491,225.999617 L674.153169,225.999617 C674.145534,225.999617 674.145534,225.999617 674.137899,225.999617 C672.412436,226.007559 671.007635,224.554282 671,222.759525 L671,202.913956 C671,202.175406 671.244313,201.460679 671.679496,200.880957 L676.718459,194.265768 C677.565921,193.138088 678.802757,192.399538 680.16175,192.201003 L680.16175,188.79414 C680.16175,188.357363 680.154455,188 683,188 C685.845545,188 685.845545,188.357363 685.845545,188.79414 L685.845545,192.201003 C687.204538,192.407479 688.441374,193.14603 689.296471,194.265768 L694.320164,200.873016 Z M684.16595,215.804296 C686.265781,215.175727 687.4284,213.027162 686.764046,211.015741 C686.242054,209.427174 684.711669,208.341464 682.979605,208.341464 C682.10171,208.341464 681.389903,207.655752 681.389903,206.81004 C681.389903,205.964329 682.10171,205.278617 682.979605,205.278617 C683.857501,205.278617 684.569308,205.964329 684.569308,206.81004 C684.569308,207.438609 685.103163,207.952894 685.755653,207.952894 C686.408143,207.952894 686.941998,207.438609 686.941998,206.81004 C686.941998,205.141474 685.81497,203.667193 684.16595,203.164338 L684.16595,202.661482 C684.16595,202.032913 683.632095,201.518629 682.979605,201.518629 C682.327115,201.518629 681.79326,202.032913 681.79326,202.661482 L681.79326,203.164338 C679.705293,203.792907 678.542674,205.941472 679.195164,207.952894 C679.717156,209.54146 681.247541,210.62717 682.979605,210.62717 C683.857501,210.62717 684.569308,211.312882 684.569308,212.158594 C684.569308,213.004305 683.857501,213.690017 682.979605,213.690017 C682.10171,213.690017 681.389903,213.004305 681.389903,212.158594 C681.389903,211.530025 680.856047,211.015741 680.203558,211.015741 C679.551068,211.015741 679.017213,211.530025 679.017213,212.158594 C679.017213,213.82716 680.14424,215.301441 681.79326,215.804296 L681.79326,216.375723 C681.79326,217.004292 682.327115,217.518576 682.979605,217.518576 C683.632095,217.518576 684.16595,217.004292 684.16595,216.375723 L684.16595,215.804296 Z" id="Shape" fill="#00A4FF" fill-rule="nonzero"></path>
            </g>
        </g>
    </g>
</svg>