<?xml version="1.0" encoding="UTF-8"?>
<svg width="38px" height="38px" viewBox="0 0 38 38" version="1.1" xmlns="http://www.w3.org/2000/svg" xmlns:xlink="http://www.w3.org/1999/xlink">
    <!-- Generator: Sketch 52.6 (67491) - http://www.bohemiancoding.com/sketch -->
    <title>we re green</title>
    <desc>Created with Sketch.</desc>
    <g id="--" stroke="none" stroke-width="1" fill="none" fill-rule="evenodd">
        <g id="01_Why-choose-Unified" transform="translate(-253.000000, -1461.000000)">
            <rect fill="#FFFFFF" x="0" y="0" width="1366" height="3695"></rect>
            <g id="Group-10" transform="translate(193.000000, 1273.000000)">
                <rect id="BG-Copy" fill="#F4F8FC" x="0" y="0" width="980" height="416" rx="4"></rect>
                <path d="M62.2177512,196.592732 C61.1920673,194.1127 60.7987599,191.191238 60.0236745,188.610921 C59.9002839,188.197583 60.2820234,187.856478 60.6406272,188.061141 C62.2177126,188.960052 64.3731912,189.730507 66.3551519,189.943236 C69.5902978,190.292327 72.883283,190.432782 75.7906727,191.5685 C78.5746719,192.656022 82.268715,195.059807 84,198.053503 C81.8638397,198.31832 79.7237849,198.667451 77.6762345,199.393844 C76.9898746,198.892219 76.2533873,198.470854 75.4552047,198.165826 C74.1750278,197.680254 72.6403578,197.539799 71.3023416,197.162577 C72.7252274,197.856826 74.1865956,198.502918 75.5361797,199.237297 C75.8755423,199.421894 76.1994039,199.626557 76.5078803,199.851285 C75.4321075,200.320846 74.3871053,200.918782 73.3884516,201.681252 C72.2278093,202.572097 71.2368289,203.659659 70.3730951,205 C69.9412282,204.899675 69.5209292,204.779285 69.1507575,204.618765 C65.9078997,203.202137 63.590471,199.915533 62.2177512,196.592732 Z M97.1727779,196.073779 C97.2692703,196.019712 97.3657628,195.996486 97.4544587,196.000428 C97.8095509,196.000428 98.0990283,196.352076 97.9677986,196.761734 C96.9604173,199.961741 96.4432177,203.598419 95.1116217,206.678582 C93.3246198,210.806076 90.3217744,214.237926 86.1224223,215.992498 C85.0648263,216.433073 83.9377944,216.722925 82.7798848,216.935484 C79.4875619,217.546106 75.9289199,217.557661 72.9337938,218.798228 C72.7215104,218.887116 72.5362834,218.929628 72.3779972,218.929628 C70.4365688,218.929628 72.6983522,212.630174 77.8780676,209.924887 C78.9356636,209.372236 80.0472568,208.862096 81.1665694,208.355821 C81.363414,208.266894 81.2823604,207.988675 81.0932351,207.988675 C81.0739366,207.988675 81.0546381,207.988675 81.0353396,207.996365 C80.0858924,208.270759 79.1518068,208.560611 78.2370582,208.892975 C74.7942071,210.141233 71.9766272,212.189522 70.5176611,215.633004 C69.2478203,218.628143 68.6765849,222.291836 69.5951932,225.426104 C69.7225632,225.870544 69.1551875,226.183584 68.8386922,225.878273 C68.5955312,225.646392 68.5183373,225.248367 68.4372836,224.935326 C68.0783316,223.516983 68.0551734,222.005887 68.0127167,220.552761 C67.9085049,216.97015 68.445003,213.368254 69.6144916,209.978954 C70.2552016,208.112268 71.0348607,206.315184 72.1541733,204.753886 C72.8566384,203.776118 73.6903333,202.887199 74.7092937,202.137487 C75.793869,201.337495 76.9440592,200.738467 78.136706,200.282433 C78.5381533,200.127845 78.9472427,199.988677 79.3563708,199.865046 C81.243802,199.293032 83.2277256,199.007083 85.2308706,198.775202 C89.3336915,198.303709 93.5214645,198.060233 97.1727779,196.073779 Z" id="Combined-Shape" fill="#00A0F2" fill-rule="nonzero"></path>
            </g>
        </g>
    </g>
</svg>