<?xml version="1.0" encoding="UTF-8"?>
<svg width="28px" height="28px" viewBox="0 0 28 28" version="1.1" xmlns="http://www.w3.org/2000/svg" xmlns:xlink="http://www.w3.org/1999/xlink">
    <!-- Generator: Sketch 52.6 (67491) - http://www.bohemiancoding.com/sketch -->
    <title>info</title>
    <desc>Created with Sketch.</desc>
    <g id="--" stroke="none" stroke-width="1" fill="none" fill-rule="evenodd">
        <g id="01_FAQ" transform="translate(-218.000000, -530.000000)" fill="#FFFFFF" fill-rule="nonzero">
            <g id="Group-4" transform="translate(193.000000, 500.000000)">
                <path d="M38.9994074,30 C31.2684444,30 25,36.2684444 25,43.9994074 C25,51.7303704 31.2684444,58 38.9994074,58 C46.7303704,58 53,51.7303704 53,43.9994074 C53,36.2684444 46.7303704,30 38.9994074,30 Z M41.9137778,51.6971852 C41.1931852,51.9816296 40.6195556,52.1973333 40.1893333,52.3466667 C39.7602963,52.496 39.2613333,52.5706667 38.6936296,52.5706667 C37.8213333,52.5706667 37.1422222,52.3573333 36.6586667,51.9318519 C36.1751111,51.5063704 35.9345185,50.9671111 35.9345185,50.3117037 C35.9345185,50.0568889 35.9522963,49.7961481 35.9878519,49.5306667 C36.0245926,49.2651852 36.0826667,48.9665185 36.1620741,48.6311111 L37.064,45.4453333 C37.1434074,45.1395556 37.2121481,44.8491852 37.2666667,44.578963 C37.3211852,44.3063704 37.3472593,44.0562963 37.3472593,43.8287407 C37.3472593,43.4234074 37.2631111,43.138963 37.096,42.978963 C36.9265185,42.818963 36.6077037,42.7407407 36.1324444,42.7407407 C35.9001481,42.7407407 35.6607407,42.7751111 35.4154074,42.8474074 C35.1724444,42.9220741 34.9614815,42.9896296 34.7884444,43.056 L35.0266667,42.0746667 C35.6168889,41.8340741 36.1822222,41.6278519 36.7214815,41.4571852 C37.2607407,41.2841481 37.7703704,41.1988148 38.2503704,41.1988148 C39.1167407,41.1988148 39.7851852,41.4097778 40.2557037,41.826963 C40.7238519,42.2453333 40.9597037,42.7893333 40.9597037,43.4577778 C40.9597037,43.5964444 40.9431111,43.8405926 40.9111111,44.189037 C40.8791111,44.5386667 40.8186667,44.8574815 40.730963,45.1502222 L39.8337778,48.3265185 C39.7602963,48.5813333 39.6951111,48.8728889 39.6358519,49.1988148 C39.5777778,49.5247407 39.5493333,49.7736296 39.5493333,49.9407407 C39.5493333,50.3626667 39.642963,50.6506667 39.8325926,50.8035556 C40.0198519,50.9564444 40.3481481,51.0334815 40.8127407,51.0334815 C41.032,51.0334815 41.2773333,50.9943704 41.5546667,50.9185185 C41.8296296,50.8426667 42.0287407,50.7751111 42.1543704,50.717037 L41.9137778,51.6971852 Z M41.754963,38.8047407 C41.3365926,39.1934815 40.8328889,39.3878519 40.2438519,39.3878519 C39.656,39.3878519 39.1487407,39.1934815 38.7268148,38.8047407 C38.3072593,38.416 38.0951111,37.9431111 38.0951111,37.3908148 C38.0951111,36.8397037 38.3084444,36.3656296 38.7268148,35.9733333 C39.1487407,35.5798519 39.656,35.3842963 40.2438519,35.3842963 C40.8328889,35.3842963 41.3377778,35.5798519 41.754963,35.9733333 C42.1733333,36.3656296 42.3831111,36.8397037 42.3831111,37.3908148 C42.3831111,37.9442963 42.1733333,38.416 41.754963,38.8047407 Z" id="info"></path>
            </g>
        </g>
    </g>
</svg>