<?xml version="1.0" encoding="UTF-8"?>
<svg width="24px" height="24px" viewBox="0 0 24 24" version="1.1" xmlns="http://www.w3.org/2000/svg" xmlns:xlink="http://www.w3.org/1999/xlink">
    <!-- Generator: Sketch 52.6 (67491) - http://www.bohemiancoding.com/sketch -->
    <title>order</title>
    <desc>Created with Sketch.</desc>
    <g id="--" stroke="none" stroke-width="1" fill="none" fill-rule="evenodd">
        <g id="01_FAQ" transform="translate(-968.000000, -530.000000)" fill="#009EEB" fill-rule="nonzero">
            <g id="Group-13" transform="translate(943.000000, 500.000000)">
                <path d="M47.8853371,53.9549694 C45.5684811,53.9576042 40.8784998,53.9628737 40.8784517,53.9629216 L40.8784517,33.8620899 C40.8784517,32.8592495 40.0580248,32.0433339 39.0496004,32.0433339 L36.2547432,32.0433339 C36.2101125,31.4585593 35.7184046,30.9962774 35.1199291,30.9962774 L34.2811305,30.9962774 C34.1542599,30.6239608 33.940869,30.2836926 33.65226,30 L47.8626851,30 C48.4907861,30 49,30.506546 49,31.1313691 L49,52.8315046 C48.9998557,52.9167753 48.9896118,53.2755348 48.7090344,53.5868206 C48.4371618,53.8644292 48.1473985,53.9529574 47.8853371,53.9549694 Z M32.8362577,31.8002168 C32.8449626,32.229109 33.1961894,32.5722994 33.6263857,32.5722994 L34.6778537,32.5722994 C34.6770362,32.795057 34.6781423,33.2027274 34.6779031,33.4342516 L29.0044465,33.4342516 C29.0044086,33.2646205 29.0045529,32.7481103 29.0044567,32.5722994 L30.0559247,32.5722994 C30.4861691,32.5722994 30.8373478,32.229109 30.8460527,31.8001689 C30.8567776,31.2684249 31.3032295,30.8357961 31.8411552,30.8357961 C32.3790809,30.8357961 32.8254847,31.2684249 32.8362577,31.8002168 Z M39.7553379,32.9997066 C39.8930529,32.9997066 40.0051217,33.1091217 40.0051701,33.2436162 L40.0051701,53.7560904 C40.0051701,53.8905849 39.8931013,54 39.7553379,54 L25.2498321,54 C25.1120688,54 25,53.8905849 25,53.7560904 L25,33.2436162 C25,33.1091217 25.1120688,32.9997066 25.2498321,32.9997066 L28.0581814,32.9997066 L28.0581814,33.1655863 C28.0581814,33.8447977 28.6140252,34.3974092 29.2972287,34.3974092 L35.7079414,34.3974092 C36.3911449,34.3974092 36.9469887,33.8448459 36.9469887,33.1655863 L36.9469887,32.9997066 L39.7553379,32.9997066 Z M26.7488249,37.6292714 C26.4522006,37.955447 26.4775081,38.4591032 26.8053432,38.7542304 L27.8025909,39.6518389 C28.0668914,39.8978665 28.6287838,39.9514429 28.9420538,39.5858914 L30.9474369,37.3075245 C31.2387384,36.9765834 31.2052048,36.4734086 30.8725308,36.1836727 C30.5398568,35.8939368 30.0340472,35.9271993 29.7427941,36.2581886 L28.2734638,37.9275276 L27.8796261,37.5730475 C27.5517427,37.2779203 27.0454975,37.3030959 26.7488249,37.6292714 Z M37.6537092,52.2097411 C38.0958874,52.2097411 38.4543043,51.8531912 38.4543043,51.4133164 C38.4543043,50.9734415 38.095839,50.6168916 37.6537092,50.6168916 L27.2767483,50.6168916 C26.8345701,50.6168916 26.4761532,50.9734415 26.4761532,51.4133164 C26.4761532,51.8531912 26.8346185,52.2097411 27.2767483,52.2097411 L37.6537092,52.2097411 Z M26.7488249,46.759298 C26.4522006,47.0854735 26.4775081,47.5890816 26.8053432,47.884257 L27.8025909,48.7818173 C28.0668914,49.0278449 28.6287838,49.0814694 28.9420538,48.7158698 L30.9474369,46.4375029 C31.2387384,46.10661 31.2052048,45.6034351 30.8725308,45.3136992 C30.5398568,45.0239152 30.0340472,45.0572259 29.7427941,45.3882151 L28.2734638,47.0575541 L27.8796261,46.7030741 C27.5517427,46.4079469 27.0454975,46.4331706 26.7488249,46.759298 Z M37.6537092,48.9534735 C38.0958874,48.9534735 38.4543043,48.5969236 38.4543043,48.1570487 C38.4543043,47.717222 38.095839,47.360624 37.6537092,47.360624 L33.1526179,47.360624 C32.7104881,47.360624 32.3520228,47.717222 32.3520228,48.1570487 C32.3520228,48.5969236 32.7104881,48.9534735 33.1526179,48.9534735 L37.6537092,48.9534735 Z M37.6537092,43.1300176 C38.0958874,43.1300176 38.4543043,42.7734677 38.4543043,42.3335929 C38.4543043,41.8937661 38.095839,41.5371681 37.6537092,41.5371681 L27.2767483,41.5371681 C26.8345701,41.5371681 26.4761532,41.8937661 26.4761532,42.3335929 C26.4761532,42.7734677 26.8346185,43.1300176 27.2767483,43.1300176 L37.6537092,43.1300176 Z M37.6537092,39.8265277 C38.0958874,39.8265277 38.4543043,39.4699296 38.4543043,39.0301029 C38.4543043,38.5902762 38.095839,38.2336781 37.6537092,38.2336781 L33.1526179,38.2336781 C32.7104881,38.2336781 32.3520228,38.5902762 32.3520228,39.0301029 C32.3520228,39.4699777 32.7104881,39.8265277 33.1526179,39.8265277 L37.6537092,39.8265277 Z" id="order"></path>
            </g>
        </g>
    </g>
</svg>