<?xml version="1.0" encoding="UTF-8"?>
<svg width="24px" height="18px" viewBox="0 0 24 18" version="1.1" xmlns="http://www.w3.org/2000/svg" xmlns:xlink="http://www.w3.org/1999/xlink">
    <!-- Generator: Sketch 52.6 (67491) - http://www.bohemiancoding.com/sketch -->
    <title>payment</title>
    <desc>Created with Sketch.</desc>
    <g id="--" stroke="none" stroke-width="1" fill="none" fill-rule="evenodd">
        <g id="01_FAQ" transform="translate(-718.000000, -530.000000)" fill="#009EEB" fill-rule="nonzero">
            <g id="Group-5" transform="translate(693.000000, 500.000000)">
                <g id="payment" transform="translate(25.000000, 30.000000)">
                    <path d="M24,4.04220779 L24,2.72727273 C24,1.22103896 22.82475,0 21.375,0 L2.625,0 C1.17525,0 0,1.22103896 0,2.72727273 L0,4.04220779 C0,4.17667208 0.104953125,4.28571429 0.234375,4.28571429 L23.765625,4.28571429 C23.8950469,4.28571429 24,4.17667208 24,4.04220779 Z" id="Path"></path>
                    <path d="M0,6.24014778 L0,14.453202 C0,15.9386601 1.17525,17.1428571 2.625,17.1428571 L21.375,17.1428571 C22.82475,17.1428571 24,15.9386601 24,14.453202 L24,6.24014778 C24,6.10753818 23.8950469,6 23.765625,6 L0.234375,6 C0.104953125,6 0,6.10753818 0,6.24014778 Z M6,12.5320197 C6,12.9564089 5.6641875,13.3004926 5.25,13.3004926 L4.5,13.3004926 C4.0858125,13.3004926 3.75,12.9564089 3.75,12.5320197 L3.75,11.7635468 C3.75,11.3391576 4.0858125,10.9950739 4.5,10.9950739 L5.25,10.9950739 C5.6641875,10.9950739 6,11.3391576 6,11.7635468 L6,12.5320197 Z" id="Shape"></path>
                </g>
            </g>
        </g>
    </g>
</svg>