<?xml version="1.0" encoding="UTF-8"?>
<svg width="24px" height="24px" viewBox="0 0 24 24" version="1.1" xmlns="http://www.w3.org/2000/svg" xmlns:xlink="http://www.w3.org/1999/xlink">
    <!-- Generator: Sketch 52.6 (67491) - http://www.bohemiancoding.com/sketch -->
    <title>shopping</title>
    <desc>Created with Sketch.</desc>
    <g id="--" stroke="none" stroke-width="1" fill="none" fill-rule="evenodd">
        <g id="01_FAQ" transform="translate(-468.000000, -845.000000)" fill="#009EEB" fill-rule="nonzero">
            <g id="Group-11" transform="translate(443.000000, 815.000000)">
                <g id="shopping" transform="translate(25.000000, 30.000000)">
                    <path d="M0,10 L2.36011962,21.9466444 C2.58401731,23.1257667 3.67341096,23.9885071 4.95291722,24 L19.0470828,24 C20.3266527,23.9885071 21.4159827,23.1258262 21.6398804,21.9466444 L24,10 L0,10 Z M7.67869186,15.3511582 C7.67869186,15.6948133 7.38105236,15.9733818 7.01387033,15.9733818 C6.6466883,15.9733818 6.3490488,15.6948133 6.3490488,15.3511582 L6.3490488,13.4844876 C6.3490488,13.1408325 6.6466883,12.862264 7.01387033,12.862264 C7.38105236,12.862264 7.67869186,13.1408325 7.67869186,13.4844876 L7.67869186,15.3511582 Z M17.6510148,15.3511582 C17.6510148,15.6948133 17.3533753,15.9733818 16.9861933,15.9733818 C16.6190113,15.9733818 16.3213718,15.6948133 16.3213718,15.3511582 L16.3213718,13.4844876 C16.3213718,13.1408325 16.6190113,12.862264 16.9861933,12.862264 C17.3533753,12.862264 17.6510148,13.1408325 17.6510148,13.4844876 L17.6510148,15.3511582 Z" id="Shape"></path>
                    <path d="M8.29412493,5.31249128 C8.29412493,3.06884658 10.177164,1.25000498 12.5,1.25000498 C14.822836,1.25000498 16.7058751,3.06884658 16.7058751,5.31249128 L16.7058751,9 L18,9 L18,5.31249128 C18.0000619,2.37846675 15.5375833,0 12.5,0 C9.46241668,0 7,2.37846675 7,5.31249128 L7,9 L8.29412493,9 L8.29412493,5.31249128 Z" id="Path"></path>
                </g>
            </g>
        </g>
    </g>
</svg>