<?xml version="1.0" encoding="UTF-8"?>
<svg width="27px" height="28px" viewBox="0 0 27 28" version="1.1" xmlns="http://www.w3.org/2000/svg" xmlns:xlink="http://www.w3.org/1999/xlink">
    <!-- Generator: Sketch 52.6 (67491) - http://www.bohemiancoding.com/sketch -->
    <title>terms </title>
    <desc>Created with Sketch.</desc>
    <g id="--" stroke="none" stroke-width="1" fill="none" fill-rule="evenodd">
        <g id="01_FAQ" transform="translate(-718.000000, -845.000000)" fill="#009EEB" fill-rule="nonzero">
            <g id="Group-10" transform="translate(693.000000, 815.000000)">
                <path d="M45.4273936,42.2953362 C40.7004817,42.2953362 36.8551098,45.9221541 36.8551098,50.380349 C36.8551098,51.9045744 37.2972971,53.3630296 38.1402437,54.64 L28.3720048,54.64 C26.5127688,54.64 25,53.2140189 25,51.4612418 L25,33.1785526 C25,31.4259811 26.5127688,30 28.3722228,30 L43.0029952,30 C44.8622312,30 46.375,31.4259811 46.375,33.1785526 L46.375,42.3446639 C46.1131327,42.3177392 45.8486489,42.3015021 45.5819847,42.2969804 L45.5697744,42.2967749 C45.5222414,42.2959527 45.4749266,42.2953362 45.4273936,42.2953362 Z M37.0934287,35.1898889 C36.6311817,35.1898889 36.2561511,35.5431984 36.2561511,35.9791318 C36.2561511,36.4150652 36.6311817,36.7683748 37.0934287,36.7683748 L42.0904934,36.7683748 C42.5529585,36.7683748 42.9277711,36.4150652 42.9277711,35.9791318 C42.9277711,35.5431984 42.5529585,35.1898889 42.0904934,35.1898889 L37.0934287,35.1898889 Z M37.0934287,38.3470662 C36.6311817,38.3470662 36.2561511,38.7003757 36.2561511,39.1363091 C36.2561511,39.5722425 36.6311817,39.925552 37.0934287,39.925552 L42.0904934,39.925552 C42.5529585,39.925552 42.9277711,39.5722425 42.9277711,39.1363091 C42.9277711,38.7003757 42.5529585,38.3470662 42.0904934,38.3470662 L37.0934287,38.3470662 Z M34.2815713,49.4499056 C34.7438183,49.4499056 35.1188489,49.096596 35.1188489,48.6606626 C35.1188489,48.2249348 34.7438183,47.8714197 34.2815713,47.8714197 L29.2845066,47.8714197 C28.8220415,47.8714197 28.4472289,48.2249348 28.4472289,48.6606626 C28.4472289,49.096596 28.8220415,49.4499056 29.2845066,49.4499056 L34.2815713,49.4499056 Z M34.2815713,46.2399066 C34.7438183,46.2399066 35.1188489,45.8865971 35.1188489,45.4506637 C35.1188489,45.0147302 34.7438183,44.6614207 34.2815713,44.6614207 L29.2845066,44.6614207 C28.8220415,44.6614207 28.4472289,45.0147302 28.4472289,45.4506637 C28.4472289,45.8865971 28.8220415,46.2399066 29.2845066,46.2399066 L34.2815713,46.2399066 Z M34.2815713,43.0827293 C34.7438183,43.0827293 35.1188489,42.7294198 35.1188489,42.2934864 C35.1188489,41.857553 34.7438183,41.5042434 34.2815713,41.5042434 L29.2845066,41.5042434 C28.8220415,41.5042434 28.4472289,41.857553 28.4472289,42.2934864 C28.4472289,42.7294198 28.8220415,43.0827293 29.2845066,43.0827293 L34.2815713,43.0827293 Z M34.2815713,39.925552 C34.7438183,39.925552 35.1188489,39.5722425 35.1188489,39.1363091 C35.1188489,38.7003757 34.7438183,38.3470662 34.2815713,38.3470662 L29.2845066,38.3470662 C28.8220415,38.3470662 28.4472289,38.7003757 28.4472289,39.1363091 C28.4472289,39.5722425 28.8220415,39.925552 29.2845066,39.925552 L34.2815713,39.925552 Z M34.2815713,36.7683748 C34.7438183,36.7683748 35.1188489,36.4150652 35.1188489,35.9791318 C35.1188489,35.5431984 34.7438183,35.1898889 34.2815713,35.1898889 L29.2845066,35.1898889 C28.8220415,35.1898889 28.4472289,35.5431984 28.4472289,35.9791318 C28.4472289,36.4150652 28.8220415,36.7683748 29.2845066,36.7683748 L34.2815713,36.7683748 Z M36.2561511,42.2934864 C36.2561511,42.7294198 36.6311817,43.0827293 37.0934287,43.0827293 L39.5001658,43.0827293 C39.9626308,43.0827293 40.3374434,42.7294198 40.3374434,42.2934864 C40.3374434,41.857553 39.9626308,41.5042434 39.5001658,41.5042434 L37.0934287,41.5042434 C36.6311817,41.5042434 36.2561511,41.857553 36.2561511,42.2934864 Z M50.0629018,45.6160386 C51.31211,46.9856723 52,48.7983154 52,50.72 C52,54.7342312 48.9720141,58 45.25,58 C43.1116146,58 41.1461541,56.9426628 39.8573657,55.0987672 C38.9694584,53.8283658 38.5,52.3143321 38.5,50.72 C38.5,46.7057688 41.5279859,43.44 45.25,43.44 C45.2866169,43.44 45.3232338,43.4406843 45.3598507,43.4413687 L45.371492,43.4415968 C47.1492114,43.4753586 48.8153868,44.2477736 50.0629018,45.6160386 Z M48.1340582,49.5365124 C48.414929,49.1592015 48.3588395,48.607835 48.0087564,48.3051195 C47.6584616,48.002404 47.1470948,48.0628559 46.866224,48.4401667 L44.7727102,51.2528888 L43.4767254,50.2409476 C43.1133078,49.9569379 42.6051159,50.0445361 42.3418127,50.4362185 C42.0782979,50.8281289 42.1595748,51.3758455 42.5229923,51.6596271 L44.4454862,53.1608862 C44.5894139,53.2731213 44.7562008,53.327642 44.9219294,53.327642 C45.1604685,53.327642 45.396256,53.2147225 45.5564815,52.9996052 L48.1340582,49.5365124 Z" id="terms-"></path>
            </g>
        </g>
    </g>
</svg>