<?xml version="1.0" encoding="UTF-8"?>
<svg width="28px" height="28px" viewBox="0 0 28 28" version="1.1" xmlns="http://www.w3.org/2000/svg" xmlns:xlink="http://www.w3.org/1999/xlink">
    <!-- Generator: Sketch 52.6 (67491) - http://www.bohemiancoding.com/sketch -->
    <title>warehousing</title>
    <desc>Created with Sketch.</desc>
    <g id="--" stroke="none" stroke-width="1" fill="none" fill-rule="evenodd">
        <g id="01_FAQ" transform="translate(-218.000000, -845.000000)" fill="#009EEB" fill-rule="nonzero">
            <g id="Group-12" transform="translate(193.000000, 815.000000)">
                <g id="warehousing" transform="translate(39.000000, 44.000000) scale(-1, 1) translate(-39.000000, -44.000000) translate(25.000000, 30.000000)">
                    <path d="M27.4,15.800675 C27.76,15.9231699 28,16.2544894 28,16.6254739 L28,20.5628099 C28,25.4521062 22.5928,27.8273405 22.3636,27.9253364 C22.2472,27.975501 22.1248,28 22,28 C21.8752,28 21.7528,27.975501 21.6364,27.9253364 C21.4072,27.8273405 16,25.4521062 16,20.5628099 L16,16.6254739 C16,16.2544894 16.24,15.9231699 16.6,15.800675 L21.7,14.0507479 C21.8944,13.983084 22.1056,13.983084 22.3,14.0507479 L27.4,15.800675 Z M25.2928,19.9246698 C25.6372,19.5770176 25.6264,19.022874 25.2712,18.6857214 C24.9148,18.3520687 24.3448,18.360235 23.998,18.7090538 L21.5488,21.1799508 L20.5288,20.024999 C20.2036,19.6598475 19.6372,19.6166826 19.2592,19.9316695 C18.8824,20.2466564 18.838,20.7996333 19.162,21.1659514 L20.8264,23.0500396 C20.992,23.2366985 21.2308,23.3475272 21.484,23.3545269 C21.4912,23.3545269 21.5008,23.3545269 21.5092,23.3545269 C21.7528,23.3545269 21.9868,23.2588642 22.1572,23.0873714 L25.2928,19.9246698 Z M15,14 L15,14.0425532 C14.2839806,14.5 13.7985437,15.212766 13.6771845,16 L5,16 L5,14 L15,14 Z M5,11 L15,11 L15,13 L5,13 L5,11 Z M5,17 L14,17 L14,19 L5,19 L5,17 Z M22,11 L22,12.4544444 L17.4166667,14.0677778 L17.4166667,10.7677778 C17.4166667,10.4011111 17.0988889,10.0833333 16.7322222,10.0833333 L5.26777778,10.0833333 C4.90111111,10.0833333 4.58333333,10.4011111 4.58333333,10.7677778 L4.58333333,22 L1.60111111,22 C0.721111111,22 0,21.2788889 0,20.3988889 L0,11 C0,4.93777778 4.93777778,0 11,0 C17.0622222,0 22,4.93777778 22,11 Z" id="Combined-Shape"></path>
                </g>
            </g>
        </g>
    </g>
</svg>