<?xml version="1.0" encoding="UTF-8"?>
<svg width="23px" height="35px" viewBox="0 0 23 35" version="1.1" xmlns="http://www.w3.org/2000/svg" xmlns:xlink="http://www.w3.org/1999/xlink">
    <!-- Generator: Sketch 52.6 (67491) - http://www.bohemiancoding.com/sketch -->
    <title>Group 10</title>
    <desc>Created with Sketch.</desc>
    <g id="--" stroke="none" stroke-width="1" fill="none" fill-rule="evenodd">
        <g id="01_About_v2-(1)" transform="translate(-218.000000, -1324.000000)" fill="#FFFFFF" fill-rule="nonzero">
            <g id="Group-4-Copy" transform="translate(193.000000, 1294.000000)">
                <g id="founder" transform="translate(25.000000, 30.000000)">
                    <g id="Group-10">
                        <path d="M23,31.4355602 L23,34.3966247 C23,34.7299895 22.7326623,35 22.4025974,35 L0.597402597,35 C0.267337662,35 0,34.7299895 0,34.3966247 L0,31.4355602 C0,28.3289314 2.49340909,25.8121019 5.57003247,25.8113477 C6.65730519,25.8105935 7.61464286,25.2456833 8.16574675,24.3888904 C8.71938961,23.529533 8.66233766,22.7822527 8.66233766,22.1782739 L8.67353896,22.1503678 C5.99269481,21.0295981 4.10714286,18.3619249 4.10714286,15.2492623 L4.10714286,15.0131917 C3.0426461,15.0131917 2.24025974,14.1635638 2.24025974,13.1623379 L2.24025974,10.0278029 C2.21636364,8.93644779 2.26564935,5.08766731 5.01818182,2.40792656 C8.21876623,-0.707752873 13.2907143,-0.45282679 16.9647403,1.2139976 C17.0842208,1.26830138 17.080487,1.44101757 16.959513,1.49155026 L16.0014286,1.88977798 C15.8580519,1.9493613 15.8886688,2.16280533 16.0425,2.17939815 L16.5077273,2.22993083 C18.7352922,2.47052675 20.8045455,3.69236182 22.0874675,5.72573674 C22.1218182,5.78079474 22.1121104,5.86451306 22.0680519,5.91202887 C21.2764935,6.75750857 20.8344156,7.87978671 20.8344156,9.04656379 L20.8344156,13.1623379 C20.8344156,14.1843048 20.0137338,15.0131917 19.0018831,15.0131917 L18.8928571,15.0131917 L18.8928571,15.2492623 C18.8928571,18.3619249 17.0073052,21.0295981 14.326461,22.1503678 L14.3376623,22.1782739 C14.3376623,22.7648302 14.2759058,23.5222925 14.8342532,24.3888904 C15.3853571,25.2456833 16.3426948,25.8105935 17.4299675,25.8113477 C20.5065909,25.8121019 23,28.3289314 23,31.4355602 Z" id="Path"></path>
                        <path d="M23,31.2769327 L23,34.3697728 C23,34.7178158 22.732513,35 22.4025974,35 L0.597402597,35 C0.267487013,35 0,34.7178158 0,34.3697728 L0,31.2769327 C0,28.0320504 2.49378247,25.403609 5.56965909,25.4024273 C6.65723052,25.4020334 7.61479221,24.8112742 8.16574675,23.9166667 C10.0889351,25.6499491 12.9099448,25.6509732 14.8342532,23.9166667 C15.3851331,24.8112742 16.3427695,25.4020334 17.4303409,25.4024273 C20.5062175,25.403609 23,28.0320504 23,31.2769327 Z" id="Path"></path>
                        <path d="M21.8288087,5.56213749 C21.8639012,5.61554596 21.8540692,5.69642792 21.8092204,5.74243686 C21.0077658,6.56429721 20.5600342,7.65407907 20.5600342,8.78752545 L20.5600342,12.785468 C20.5600342,13.6930457 19.8541763,14.5833333 18.5936455,14.5833333 L18.5936455,10.0578997 C18.5936455,8.11570699 16.9683496,6.54129274 14.9633894,6.54129274 L7.24909531,6.54129274 C5.24413514,6.54129274 3.61883925,8.11570699 3.61883925,10.0578997 L3.61883925,14.5833333 C2.54072883,14.5833333 1.72808089,13.7580296 1.72808089,12.785468 L1.72808089,9.74067247 C1.70387918,8.68056199 1.7537952,4.94196919 4.54152934,2.3389474 C7.78281858,-0.687605743 12.9201603,-0.439831476 16.6405677,1.17941951 C16.7615763,1.23209535 16.7583998,1.39994008 16.6356518,1.44887952 L15.6652389,1.83585282 C15.52018,1.89373031 15.5507346,2.1008438 15.7066844,2.11703485 L16.1780126,2.16604756 C18.4344436,2.39953561 20.5296308,3.58639047 21.8288087,5.56213749 Z" id="Path"></path>
                        <path d="M18.975,15.3915762 C18.975,19.4569939 15.626502,22.75 11.5,22.75 C7.61209394,22.75 4.025,19.7745953 4.025,15.1589311 L4.025,10.5677206 C4.025,8.59729825 5.64760354,7 7.64924242,7 L15.3507576,7 C17.3523965,7 18.975,8.59729825 18.975,10.5677206 L18.975,15.3915762 Z" id="Path"></path>
                        <path d="M17.25,34.4166667 L15.525,34.4166667 C15.2074562,34.4166667 14.95,34.0248854 14.95,33.5416667 C14.95,33.0584479 15.2074562,32.6666667 15.525,32.6666667 L17.25,32.6666667 C17.5675437,32.6666667 17.825,33.0584479 17.825,33.5416667 C17.825,34.0248854 17.5676156,34.4166667 17.25,34.4166667 Z" id="Path"></path>
                        <path d="M9.78762447,19.9251639 C11.0124004,20.7049167 10.0466205,22.6171988 8.70589082,22.0695417 C5.94933613,20.9435978 4.025,18.2099067 4.025,15.0299423 L4.025,10.0602909 C4.025,9.28811883 4.25901444,8.5715395 4.65872014,7.97992891 C5.14887129,7.25454358 6.28237405,7.57500569 6.28237405,8.52881122 L6.28237405,13.4984627 C6.28237405,16.2941788 7.72649147,18.612839 9.78762447,19.9251639 Z" id="Path"></path>
                        <path d="M14.375,23.3501303 C12.5648447,24.0770546 10.5755622,24.1334436 8.625,23.3501303 C8.72462944,22.9535748 8.70802453,22.696723 8.70802453,22.1927466 L8.71904549,22.1666667 C10.4884232,22.8712469 12.5081236,22.8726566 14.2809545,22.1666667 L14.2919755,22.1927466 C14.2919755,22.6969345 14.2753706,22.9537158 14.375,23.3501303 Z" id="Path"></path>
                        <path d="M8.72767361,27.3054772 C8.44673372,27.3970965 8.14543366,27.4475934 7.82240596,27.4505082 C4.68511718,27.4791835 2.12718147,30.0515347 2.12718147,33.3049251 L2.12718147,33.8971024 C2.12718147,34.506217 1.6509967,35 1.06359073,35 L0.607766133,35 C0.272127286,35 0,34.7178158 0,34.3697728 L0,31.2769327 C0,28.0319716 2.53704375,25.403609 5.66627963,25.4024273 C6.77271787,25.4020334 7.74689101,24.8112742 8.30740333,23.9166667 C8.53334039,24.1167638 8.77523131,24.2966149 9.03003726,24.4540929 C10.150834,25.1466339 9.97222671,26.8996896 8.72767361,27.3054772 Z" id="Path"></path>
                        <path d="M14.2722987,27.3054772 C14.5532395,27.3970965 14.8545405,27.4475934 15.1775692,27.4505082 C18.3148679,27.4791835 20.8728118,30.0515347 20.8728118,33.3049251 L20.8728118,33.8971024 C20.8728118,34.506217 21.3489981,35 21.9364059,35 L22.3922319,35 C22.7278718,35 23,34.7178158 23,34.3697728 L23,31.2769327 C23,28.0319716 20.4629482,25.403609 17.3337024,25.4024273 C16.2272606,25.4020334 15.2530844,24.8112742 14.6925703,23.9166667 C14.4666325,24.1167638 14.2247408,24.2966149 13.9699341,24.4540929 C12.8492097,25.1466339 13.0277416,26.8996896 14.2722987,27.3054772 Z" id="Path"></path>
                        <path d="M17.1563395,1.53946993 C16.2703127,1.91616203 16.1440173,1.99922268 15.8370201,1.95002462 C10.8881406,1.15756221 6.54617211,3.27284522 5.07162092,8.23881323 L5.07162092,8.23959168 C4.52002062,8.89504684 4.18695049,9.75134217 4.18695049,10.6870394 L4.18695049,13.6080185 C4.18695049,14.8681739 2.30306968,14.9559052 2.30306968,13.5852099 L2.30306968,10.3499705 C2.27895601,9.22355287 2.32869046,5.25112097 5.10628433,2.48528705 C8.33600959,-0.730491152 13.454137,-0.46737495 17.1616144,1.25300022 C17.2821828,1.30904864 17.278415,1.48731376 17.1563395,1.53946993 Z" id="Path"></path>
                    </g>
                </g>
            </g>
        </g>
    </g>
</svg>