<?xml version="1.0" encoding="UTF-8"?>
<svg width="22px" height="30px" viewBox="0 0 22 30" version="1.1" xmlns="http://www.w3.org/2000/svg" xmlns:xlink="http://www.w3.org/1999/xlink">
    <!-- Generator: Sketch 52.6 (67491) - http://www.bohemiancoding.com/sketch -->
    <title>Combined Shape</title>
    <desc>Created with Sketch.</desc>
    <g id="--" stroke="none" stroke-width="1" fill="none" fill-rule="evenodd">
        <g id="01_About_v2-(1)" transform="translate(-968.000000, -1324.000000)" fill="#009CE5">
            <g id="Group-28" transform="translate(943.000000, 1294.000000)">
                <g id="locationn" transform="translate(25.000000, 30.000000)">
                    <path d="M11,30 C3.66666667,20.8001923 0,14.2789974 0,10.4364154 C0,4.67254231 4.92486775,0 11,0 C17.0751322,0 22,4.67254231 22,10.4364154 C22,14.2789974 18.3333333,20.8001923 11,30 Z M11,15.5208228 C14.1154524,15.5208228 16.6410256,13.2444561 16.6410256,10.4364154 C16.6410256,7.62837464 14.1154524,5.35200788 11,5.35200788 C7.88454757,5.35200788 5.35897436,7.62837464 5.35897436,10.4364154 C5.35897436,13.2444561 7.88454757,15.5208228 11,15.5208228 Z" id="Combined-Shape"></path>
                </g>
            </g>
        </g>
    </g>
</svg>