<?xml version="1.0" encoding="UTF-8"?>
<svg width="34px" height="32px" viewBox="0 0 34 32" version="1.1" xmlns="http://www.w3.org/2000/svg" xmlns:xlink="http://www.w3.org/1999/xlink">
    <!-- Generator: Sketch 52.6 (67491) - http://www.bohemiancoding.com/sketch -->
    <title>Path</title>
    <desc>Created with Sketch.</desc>
    <g id="--" stroke="none" stroke-width="1" fill="none" fill-rule="evenodd">
        <g id="01_About_v2-(1)" transform="translate(-718.000000, -1595.000000)" fill="#009CE5" fill-rule="nonzero">
            <g id="Group-26" transform="translate(693.000000, 1565.000000)">
                <g id="service" transform="translate(25.000000, 30.000000)">
                    <path d="M27.0210802,2.6736323 C26.7138246,2.43100743 26.3643373,2.25045259 25.9913132,2.14162313 L22.3647684,1.07877722 C22.2642328,1.04925947 22.1726412,0.993948172 22.098803,0.918084795 L21.2035317,3.06273701e-17 C19.9084717,0.707046673 18.4669457,1.08526009 16.9999328,1.1028466 C15.5329198,1.08526009 14.0913939,0.707046673 12.7963338,0 L11.9010625,0.918084795 C11.8271571,0.994017138 11.7356327,1.04932844 11.6350971,1.07884619 L8.00855235,2.14162313 C7.63552825,2.25045259 7.28610817,2.43100743 6.97878527,2.6736323 L0,8.17931344 L4.22760645,14.6837704 L5.40283074,13.719409 L2.34708619,9.01925895 C2.1627597,8.72966775 2.24029652,8.341799 2.52092201,8.14993362 C2.80154749,7.95806824 3.18042216,8.03386265 3.37019573,8.31972965 L6.36656039,12.9285677 L6.77825203,12.5907688 C6.96284751,12.4393179 7.21576686,12.4098691 7.42887546,12.5149054 C7.64198405,12.6199417 7.77742132,12.84098 7.77742132,13.083398 L7.77742132,32 L26.2225787,32 L26.2225787,13.083329 C26.2225787,12.8408421 26.3580159,12.6198728 26.5711245,12.5148365 C26.7841659,12.4098002 27.0370852,12.4393179 27.221748,12.5906998 L27.6334396,12.9284988 L30.629737,8.31966068 C30.8188381,8.03179365 31.199125,7.95475784 31.4807592,8.14731288 C31.7623934,8.33986793 31.8392577,8.72952982 31.6529138,9.01918999 L28.5971693,13.71934 L29.7723936,14.6837014 L34,8.17924447 L27.0210802,2.6736323 Z" id="Path"></path>
                </g>
            </g>
        </g>
    </g>
</svg>