<?xml version="1.0" encoding="UTF-8"?>
<svg width="26px" height="22px" viewBox="0 0 26 22" version="1.1" xmlns="http://www.w3.org/2000/svg" xmlns:xlink="http://www.w3.org/1999/xlink">
    <title>vinyl</title>
    <g id="--" stroke="none" stroke-width="1" fill="none" fill-rule="evenodd">
        <g id="Fulfillment-page_v2-Copy" transform="translate(-888.000000, -5332.000000)" fill="#009CE5" fill-rule="nonzero">
            <g id="vinyl" transform="translate(888.000000, 5332.000000)">
                <path d="M17.6977778,1.7305903 L17.6977778,8.06857636 C18.5875174,8.73793404 19.1644444,9.80279515 19.1644444,11 C19.1644444,12.1972048 18.5875174,13.262066 17.6977778,13.9314236 L17.6977778,20.2694097 C21.8924826,19.2719618 25.0311111,15.4880382 25.0311111,11 C25.0311111,6.51196182 21.8924826,2.72803818 17.6977778,1.7305903 Z M20.1617014,15.6639236 L19.1350347,14.637257 C21.1297396,12.6280382 21.1297396,9.37196182 19.1350347,7.36274303 L20.1617014,6.33607636 C22.7430729,8.90274303 22.7430729,13.097257 20.1617014,15.6639236 Z" id="Shape"></path>
                <path d="M4.44888889,7.33333333 L4.44888889,14.6666667 L7.38222222,14.6666667 L7.38222222,7.33333333 L4.44888889,7.33333333 Z M4.44888889,7.33333333 L4.44888889,14.6666667 L7.38222222,14.6666667 L7.38222222,7.33333333 L4.44888889,7.33333333 Z M15.4977778,7.33333333 C15.7485243,7.33333333 15.9939236,7.35873263 16.2311111,7.4072396 L16.2311111,0 L0,0 L0,22 L16.2311111,22 L16.2311111,14.5927604 C15.9939236,14.6412674 15.7485243,14.6666667 15.4977778,14.6666667 C13.4725174,14.6666667 11.8311111,13.0180035 11.8311111,11 C11.8311111,8.98008682 13.4740452,7.33333333 15.4977778,7.33333333 Z M8.84888889,16.1333333 L2.98222222,16.1333333 L2.98222222,5.86666667 L8.84888889,5.86666667 L8.84888889,16.1333333 Z M7.38222222,7.33333333 L4.44888889,7.33333333 L4.44888889,14.6666667 L7.38222222,14.6666667 L7.38222222,7.33333333 Z" id="Shape"></path>
                <path d="M15.4977778,13.2 C14.2847222,13.2 13.2977778,12.2130556 13.2977778,11 C13.2977778,9.78694444 14.2847222,8.8 15.4977778,8.8 C16.7108333,8.8 17.6977778,9.78694444 17.6977778,11 C17.6977778,12.2130556 16.7108333,13.2 15.4977778,13.2 Z M15.4977778,10.2666667 C15.0931076,10.2666667 14.7644444,10.5953298 14.7644444,11 C14.7644444,11.4046702 15.0931076,11.7333333 15.4977778,11.7333333 C15.9024479,11.7333333 16.2311111,11.4046702 16.2311111,11 C16.2311111,10.5953298 15.9024479,10.2666667 15.4977778,10.2666667 Z" id="Shape"></path>
            </g>
        </g>
    </g>
</svg>