<?xml version="1.0" encoding="UTF-8"?>
<svg width="13px" height="12px" viewBox="0 0 13 12" version="1.1" xmlns="http://www.w3.org/2000/svg" xmlns:xlink="http://www.w3.org/1999/xlink">
    <!-- Generator: Sketch 52.6 (67491) - http://www.bohemiancoding.com/sketch -->
    <title>Shape</title>
    <desc>Created with Sketch.</desc>
    <g id="--" stroke="none" stroke-width="1" fill="none" fill-rule="evenodd">
        <g id="SWAGGIN-HOME-PAGE" transform="translate(-853.000000, -20.000000)" fill="#009CEC" fill-rule="nonzero">
            <g id="Group-8-Copy" transform="translate(847.000000, 14.000000)">
                <g id="chat" transform="translate(6.500000, 6.000000)">
                    <path d="M6.0278188,0 C6.02454459,0 6.01799617,0 6.00817355,0 C2.69467402,0 0,2.64607242 0,5.89980911 C0,7.22766805 0.461663471,8.51694514 1.3064094,9.55544015 L0.43219559,11.5520513 C0.360162992,11.7160242 0.438744008,11.9057183 0.602454459,11.9732366 C0.661390222,11.9989578 0.726874402,12.0053881 0.789084373,11.9957427 L3.994535,11.442736 C4.63627997,11.671012 5.31076703,11.7867576 5.9918025,11.7835424 C9.30530203,11.7835424 11.999976,9.13747002 11.999976,5.88373334 C12.0065245,2.63964211 9.3314957,0.00321515483 6.0278188,0 Z M3.97161554,4.71341698 L5.73968841,4.71341698 C5.9197699,4.71341698 6.06710931,4.85809894 6.06710931,5.03493246 C6.06710931,5.21176598 5.9197699,5.35644794 5.73968841,5.35644794 L3.97161554,5.35644794 C3.79153404,5.35644794 3.64419464,5.21176598 3.64419464,5.03493246 C3.64419464,4.85809894 3.79153404,4.71341698 3.97161554,4.71341698 Z M8.03163472,6.96402536 L3.97161554,6.96402536 C3.79153404,6.96402536 3.64419464,6.81934339 3.64419464,6.64250987 C3.64419464,6.46567636 3.79153404,6.32099439 3.97161554,6.32099439 L8.03163472,6.32099439 C8.21171622,6.32099439 8.35905562,6.46567636 8.35905562,6.64250987 C8.35905562,6.81934339 8.21171622,6.96402536 8.03163472,6.96402536 Z" id="Shape"></path>
                </g>
            </g>
        </g>
    </g>
</svg>