<?xml version="1.0" encoding="UTF-8"?>
<svg width="35px" height="33px" viewBox="0 0 35 33" version="1.1" xmlns="http://www.w3.org/2000/svg" xmlns:xlink="http://www.w3.org/1999/xlink">
    <!-- Generator: Sketch 52.6 (67491) - http://www.bohemiancoding.com/sketch -->
    <title>choice</title>
    <desc>Created with Sketch.</desc>
    <g id="--" stroke="none" stroke-width="1" fill="none" fill-rule="evenodd">
        <g id="01_About_v2-(1)" transform="translate(-891.000000, -2504.000000)" fill="#000000" fill-rule="nonzero">
            <g id="Group-23" transform="translate(193.000000, 2474.000000)">
                <g id="Group-21" transform="translate(668.000000, 0.000000)">
                    <g id="choice" transform="translate(30.000000, 30.000000)">
                        <path d="M0.181871586,10.6470076 L2.37280319,12.3266581 L0.310719639,16.2025976 C-0.72029354,17.989874 1.05092396,19.7309129 2.17944532,20.3369966 C3.29040949,20.9335971 5.01473157,21.0045248 6.62570396,20.9830333 L9.52544282,16.3318273 L11.7163744,17.4946148 L7.91447043,10.5824769 L0.181871586,10.6470076 Z M0.504020313,20.1350435 L5.20803224,28.6621889 C6.15314672,29.8464679 7.9359737,30.126419 9.78319612,30.0833798 L14.7449613,30.0833798 L14.7449613,22.0084545 L5.33693748,21.9438676 C3.87637361,22.0298899 1.96464138,21.7284472 0.504020313,20.1350435 Z M30.0993829,4.42052264 L27.5400362,5.48640179 L25.0847173,1.83777878 C23.9914819,0.086527278 21.5807137,0.762416425 20.493426,1.43707107 C19.4230664,2.10123246 18.5238179,3.54660835 17.761996,4.93951797 L20.502176,9.68291866 L18.4034911,10.9993453 L26.4080835,11.0877805 L30.0993829,4.42052264 Z M21.4856647,0.0971888752 L11.6041113,0 C10.0902468,0.236855798 8.97636597,1.63105603 8.11920901,3.2372537 L5.71370223,7.49527115 L12.911636,11.4100974 L17.5303211,3.36771798 C18.1616365,2.07244615 19.357184,0.578083021 21.4856647,0.0971888752 Z M21.9155013,33 L22.2061386,30.286848 L26.6489087,29.9487631 C28.7399301,29.8595424 29.306221,27.4630959 29.231989,26.2028951 C29.1589579,24.9623341 28.3064333,23.4899114 27.4341212,22.1608592 L21.8774703,22.2127643 L21.7214,19.7735031 L17.7618816,26.5998993 L21.9155013,33 Z M29.9453142,27.704048 L34.8226105,19.2712297 C35.3454373,17.8572213 34.6426922,16.2253797 33.6264911,14.7110962 L30.9971444,10.5824208 L24.0179035,14.8614809 L28.9475854,22.7241282 C29.7961067,23.8938176 30.5485496,25.6442274 29.9453142,27.704048 Z" id="Shape"></path>
                    </g>
                </g>
            </g>
        </g>
    </g>
</svg>