<?xml version="1.0" encoding="UTF-8"?>
<svg width="38px" height="33px" viewBox="0 0 38 33" version="1.1" xmlns="http://www.w3.org/2000/svg" xmlns:xlink="http://www.w3.org/1999/xlink">
    <!-- Generator: Sketch 52.6 (67491) - http://www.bohemiancoding.com/sketch -->
    <title>discount</title>
    <desc>Created with Sketch.</desc>
    <g id="--" stroke="none" stroke-width="1" fill="none" fill-rule="evenodd">
        <g id="01_About_v2-(1)" transform="translate(-557.000000, -2504.000000)" fill="#000000" fill-rule="nonzero">
            <g id="Group-23" transform="translate(193.000000, 2474.000000)">
                <g id="Group-20" transform="translate(334.000000, 0.000000)">
                    <path d="M37.9778393,47 C40.312096,47 42.232687,46.1808134 43.7396122,44.5424403 C45.2465374,42.9040672 46,40.8974359 46,38.5225464 C46,36.117595 45.2613112,34.0959328 43.7839335,32.4575597 C42.3065559,30.8191866 40.3859649,30 38.0221607,30 C35.6288089,30 33.6934441,30.8191866 32.2160665,32.4575597 C30.7386888,34.0959328 30,36.1025641 30,38.4774536 C30,40.882405 30.7386888,42.9040672 32.2160665,44.5424403 C33.6934441,46.1808134 35.6140351,47 37.9778393,47 Z M40.2,62 L65,30 L58.8,30 L34,62 L40.2,62 Z M38.025641,42 C37.1709402,42 36.4529915,41.6730361 35.8717949,41.0191083 C35.2905983,40.3651805 35,39.5329087 35,38.522293 C35,37.4819533 35.2735043,36.6348195 35.8205128,35.9808917 C36.3675214,35.3269639 37.0854701,35 37.974359,35 C38.8290598,35 39.5470085,35.3343949 40.1282051,36.0031847 C40.7094017,36.6719745 41,37.4968153 41,38.477707 C41,39.5180467 40.7179487,40.3651805 40.1538462,41.0191083 C39.5897436,41.6730361 38.8803419,42 38.025641,42 Z M59.9778393,63 C62.312096,63 64.232687,62.173298 65.7396122,60.5198939 C67.2465374,58.8664898 68,56.867374 68,54.5225464 C68,52.117595 67.2613112,50.0959328 65.7839335,48.4575597 C64.3065559,46.8191866 62.3859649,46 60.0221607,46 C57.6288089,46 55.6934441,46.8191866 54.2160665,48.4575597 C52.7386888,50.0959328 52,52.1025641 52,54.4774536 C52,56.882405 52.7460757,58.9040672 54.2382271,60.5424403 C55.7303786,62.1808134 57.6435826,63 59.9778393,63 Z M60.025641,58 C59.1709402,58 58.4529915,57.6730361 57.8717949,57.0191083 C57.2905983,56.3354565 57,55.5031847 57,54.522293 C57,53.4522293 57.2649573,52.5976645 57.7948718,51.9585987 C58.3247863,51.3195329 59.0512821,51 59.974359,51 C60.8632479,51 61.5897436,51.3269639 62.1538462,51.9808917 C62.7179487,52.6348195 63,53.4670913 63,54.477707 C63,55.5180467 62.7179487,56.3651805 62.1538462,57.0191083 C61.5897436,57.6730361 60.8803419,58 60.025641,58 Z" id="discount"></path>
                </g>
            </g>
        </g>
    </g>
</svg>