<?xml version="1.0" encoding="UTF-8"?>
<svg width="28px" height="27px" viewBox="0 0 28 27" version="1.1" xmlns="http://www.w3.org/2000/svg" xmlns:xlink="http://www.w3.org/1999/xlink">
    <!-- Generator: Sketch 52.6 (67491) - http://www.bohemiancoding.com/sketch -->
    <title>discount</title>
    <desc>Created with Sketch.</desc>
    <g id="--" stroke="none" stroke-width="1" fill="none" fill-rule="evenodd">
        <g id="01_About_v2-(1)" transform="translate(-718.000000, -1324.000000)" fill="#009CE5" fill-rule="nonzero">
            <g id="Group-5-Copy" transform="translate(693.000000, 1294.000000)">
                <path d="M30.9636364,44 C32.7333333,44 34.1818182,43.3156425 35.3090909,41.9469274 C36.4363636,40.5782123 37,38.9292365 37,37 C37,35.0446927 36.4424242,33.3891993 35.3272727,32.0335196 C34.2121212,30.6778399 32.7818182,30 31.0363636,30 C29.2666667,30 27.8181818,30.6843575 26.6909091,32.0530726 C25.5636364,33.4217877 25,35.0707635 25,37 C25,38.9553073 25.5575758,40.6108007 26.6727273,41.9664804 C27.7878788,43.3221601 29.2181818,44 30.9636364,44 Z M31.7266776,57 L51,31 L47.2733224,31 L28,57 L31.7266776,57 Z M31.0394737,41 C30.1710526,41 29.4473684,40.6143791 28.8684211,39.8431373 C28.2894737,39.0718954 28,38.124183 28,37 C28,35.875817 28.2697368,34.9281046 28.8092105,34.1568627 C29.3486842,33.3856209 30.0657895,33 30.9605263,33 C31.8289474,33 32.5526316,33.3856209 33.1315789,34.1568627 C33.7105263,34.9281046 34,35.875817 34,37 C34,38.124183 33.7302632,39.0718954 33.1907895,39.8431373 C32.6513158,40.6143791 31.9342105,41 31.0394737,41 Z M46.9636364,57 C48.7333333,57 50.1818182,56.3156425 51.3090909,54.9469274 C52.4363636,53.5782123 53,51.9292365 53,50 C53,48.0446927 52.4424242,46.3891993 51.3272727,45.0335196 C50.2121212,43.6778399 48.7818182,43 47.0363636,43 C45.2666667,43 43.8181818,43.6843575 42.6909091,45.0530726 C41.5636364,46.4217877 41,48.0707635 41,50 C41,51.9553073 41.5575758,53.6108007 42.6727273,54.9664804 C43.7878788,56.3221601 45.2181818,57 46.9636364,57 Z M47.0394737,54 C46.1710526,54 45.4473684,53.6143791 44.8684211,52.8431373 C44.2894737,52.0718954 44,51.124183 44,50 C44,48.875817 44.2697368,47.9281046 44.8092105,47.1568627 C45.3486842,46.3856209 46.0657895,46 46.9605263,46 C47.8289474,46 48.5526316,46.3856209 49.1315789,47.1568627 C49.7105263,47.9281046 50,48.875817 50,50 C50,51.124183 49.7302632,52.0718954 49.1907895,52.8431373 C48.6513158,53.6143791 47.9342105,54 47.0394737,54 Z" id="discount"></path>
            </g>
        </g>
    </g>
</svg>