<?xml version="1.0" encoding="UTF-8"?>
<svg width="12px" height="14px" viewBox="0 0 12 14" version="1.1" xmlns="http://www.w3.org/2000/svg" xmlns:xlink="http://www.w3.org/1999/xlink">
    <!-- Generator: Sketch 52.6 (67491) - http://www.bohemiancoding.com/sketch -->
    <title>down-arrow</title>
    <desc>Created with Sketch.</desc>
    <g id="--" stroke="none" stroke-width="1" fill="none" fill-rule="evenodd">
        <g id="catalogue-item" transform="translate(-711.000000, -912.000000)" fill="#C3C3C3" fill-rule="nonzero">
            <g id="down-arrow" transform="translate(711.000000, 912.000000)">
                <path d="M11.5384532,9 C11.7933627,9 12,9.22385698 12,9.50000879 L12,12.5000029 C12,13.328429 11.3800881,14 10.6153867,14 L1.3846133,14 C0.619911929,14 0,13.328429 0,12.5000029 L0,9.50000879 C0,9.22385698 0.20663731,9 0.461546783,9 C0.716456255,9 0.923093565,9.22385698 0.923093565,9.50000879 L0.923093565,12.5000029 C0.923093565,12.7761547 1.12973087,13.0000117 1.38464035,13.0000117 L10.6153597,13.0000117 C10.8702691,13.0000117 11.0769064,12.7761547 11.0769064,12.5000029 L11.0769064,9.50000879 C11.0769064,9.22385698 11.2835437,9 11.5384532,9 Z M8.87255205,8.64623183 C9.03839078,8.83806173 9.04298925,9.15457521 8.88280079,9.35320177 L6.79555657,11.8531133 C6.79528751,11.8534356 6.79504291,11.8537286 6.79479831,11.8540215 C6.63157681,12.0490154 6.36726217,12.0486052 6.20443202,11.8531133 L4.11718781,9.35320177 C3.9609374,9.15943833 3.9609374,8.85227027 4.11718781,8.65850683 C4.27735181,8.45990957 4.54161753,8.45440193 4.70745625,8.64623183 L6.08213208,10.2926937 L6.08213208,0.499994032 C6.08213208,0.223850378 6.26903085,0 6.49959071,0 C6.73015056,0 6.91704934,0.223850378 6.91704934,0.499994032 L6.91704934,10.2926644 L8.2925568,8.64623183 C8.45431071,8.45911858 8.71077369,8.45911858 8.87255205,8.64623183 Z" id="Combined-Shape"></path>
            </g>
        </g>
    </g>
</svg>