<?xml version="1.0" encoding="UTF-8"?>
<svg width="34px" height="33px" viewBox="0 0 34 33" version="1.1" xmlns="http://www.w3.org/2000/svg" xmlns:xlink="http://www.w3.org/1999/xlink">
    <!-- Generator: Sketch 52.6 (67491) - http://www.bohemiancoding.com/sketch -->
    <title>guarantee</title>
    <desc>Created with Sketch.</desc>
    <g id="--" stroke="none" stroke-width="1" fill="none" fill-rule="evenodd">
        <g id="01_About_v2-(1)" transform="translate(-223.000000, -2504.000000)" fill="#000000" fill-rule="nonzero">
            <g id="Group-23" transform="translate(193.000000, 2474.000000)">
                <g id="Group-22">
                    <g id="guarantee" transform="translate(30.000000, 30.000000)">
                        <path d="M34,16.518602 L31.0900901,12.8354002 L31.740991,8.25930101 L27.2995495,6.54791432 L25.5382883,2.23224352 L20.8288288,2.86471251 L17,0 L13.2094595,2.82750846 L8.5,2.19503946 L6.73873874,6.51071026 L2.2972973,8.22209696 L2.9481982,12.7981962 L0,16.518602 L2.90990991,20.2018038 L2.25900901,24.777903 L6.70045045,26.4892897 L8.46171171,30.8049605 L13.1711712,30.1724915 L16.9617117,33 L20.7522523,30.1724915 L25.4617117,30.8049605 L27.222973,26.4892897 L31.6644144,24.740699 L31.0135135,20.1645998 L34,16.518602 Z M15.6216216,21.8759865 L9.95495495,17.3370913 L11.1801802,15.886133 L15.3918919,19.2344983 L22.5900901,11.1612176 L24.045045,12.3889515 L15.6216216,21.8759865 Z" id="Shape"></path>
                    </g>
                </g>
            </g>
        </g>
    </g>
</svg>