<?xml version="1.0" encoding="UTF-8"?>
<svg width="43px" height="34px" viewBox="0 0 43 34" version="1.1" xmlns="http://www.w3.org/2000/svg" xmlns:xlink="http://www.w3.org/1999/xlink">
    <!-- Generator: Sketch 52.6 (67491) - http://www.bohemiancoding.com/sketch -->
    <title>mc_vrt_pos</title>
    <desc>Created with Sketch.</desc>
    <g id="--" stroke="none" stroke-width="1" fill="none" fill-rule="evenodd" opacity="0.4">
        <g id="SWAGGIN-HOME-PAGE" transform="translate(-964.000000, -5955.000000)">
            <g id="Footer" transform="translate(23.000000, 5886.000000)">
                <g id="Pay_method" transform="translate(936.000000, 64.000000)">
                    <g id="mc_vrt_pos">
                        <polygon id="Rectangle-path" points="0.214864865 0.28852459 52.7851351 0.28852459 52.7851351 43.7114754 0.214864865 43.7114754"></polygon>
                        <g id="Group" transform="translate(5.371622, 5.409836)" fill-rule="nonzero">
                            <path d="M7.84256757,32.8557377 L7.84256757,30.6918033 C7.84256757,29.8622951 7.34121622,29.3213115 6.48175676,29.3213115 C6.05202703,29.3213115 5.58648649,29.4655738 5.26418919,29.9344262 C5.01351351,29.5377049 4.65540541,29.3213115 4.11824324,29.3213115 C3.76013514,29.3213115 3.40202703,29.4295082 3.11554054,29.8262295 L3.11554054,29.3934426 L2.36351351,29.3934426 L2.36351351,32.8557377 L3.11554054,32.8557377 L3.11554054,30.9442623 C3.11554054,30.3311475 3.43783784,30.042623 3.93918919,30.042623 C4.44054054,30.042623 4.69121622,30.3672131 4.69121622,30.9442623 L4.69121622,32.8557377 L5.44324324,32.8557377 L5.44324324,30.9442623 C5.44324324,30.3311475 5.80135135,30.042623 6.26689189,30.042623 C6.76824324,30.042623 7.01891892,30.3672131 7.01891892,30.9442623 L7.01891892,32.8557377 L7.84256757,32.8557377 Z M18.9797297,29.3934426 L17.7621622,29.3934426 L17.7621622,28.347541 L17.0101351,28.347541 L17.0101351,29.3934426 L16.3297297,29.3934426 L16.3297297,30.0786885 L17.0101351,30.0786885 L17.0101351,31.6655738 C17.0101351,32.4590164 17.3324324,32.9278689 18.1918919,32.9278689 C18.5141892,32.9278689 18.8722973,32.8196721 19.122973,32.6754098 L18.9081081,32.0262295 C18.6932432,32.1704918 18.4425676,32.2065574 18.2635135,32.2065574 C17.9054054,32.2065574 17.7621622,31.9901639 17.7621622,31.6295082 L17.7621622,30.0786885 L18.9797297,30.0786885 L18.9797297,29.3934426 Z M25.3540541,29.3213115 C24.9243243,29.3213115 24.6378378,29.5377049 24.4587838,29.8262295 L24.4587838,29.3934426 L23.7067568,29.3934426 L23.7067568,32.8557377 L24.4587838,32.8557377 L24.4587838,30.9081967 C24.4587838,30.3311475 24.7094595,30.0065574 25.175,30.0065574 C25.3182432,30.0065574 25.4972973,30.042623 25.6405405,30.0786885 L25.8554054,29.357377 C25.7121622,29.3213115 25.4972973,29.3213115 25.3540541,29.3213115 L25.3540541,29.3213115 Z M15.7209459,29.6819672 C15.3628378,29.4295082 14.8614865,29.3213115 14.3243243,29.3213115 C13.4648649,29.3213115 12.8918919,29.7540984 12.8918919,30.4393443 C12.8918919,31.0163934 13.3216216,31.3409836 14.0736486,31.4491803 L14.4317568,31.4852459 C14.8256757,31.557377 15.0405405,31.6655738 15.0405405,31.8459016 C15.0405405,32.0983607 14.7540541,32.2786885 14.2527027,32.2786885 C13.7513514,32.2786885 13.3574324,32.0983607 13.1067568,31.9180328 L12.7486486,32.495082 C13.1425676,32.7836066 13.6797297,32.9278689 14.2168919,32.9278689 C15.2195946,32.9278689 15.7925676,32.4590164 15.7925676,31.8098361 C15.7925676,31.1967213 15.327027,30.8721311 14.6108108,30.7639344 L14.2527027,30.7278689 C13.9304054,30.6918033 13.6797297,30.6196721 13.6797297,30.4032787 C13.6797297,30.1508197 13.9304054,30.0065574 14.3243243,30.0065574 C14.7540541,30.0065574 15.1837838,30.1868852 15.3986486,30.295082 L15.7209459,29.6819672 Z M35.7033784,29.3213115 C35.2736486,29.3213115 34.9871622,29.5377049 34.8081081,29.8262295 L34.8081081,29.3934426 L34.0560811,29.3934426 L34.0560811,32.8557377 L34.8081081,32.8557377 L34.8081081,30.9081967 C34.8081081,30.3311475 35.0587838,30.0065574 35.5243243,30.0065574 C35.6675676,30.0065574 35.8466216,30.042623 35.9898649,30.0786885 L36.2047297,29.357377 C36.0614865,29.3213115 35.8466216,29.3213115 35.7033784,29.3213115 L35.7033784,29.3213115 Z M26.1060811,31.1245902 C26.1060811,32.1704918 26.8222973,32.9278689 27.9324324,32.9278689 C28.4337838,32.9278689 28.7918919,32.8196721 29.15,32.5311475 L28.7918919,31.9180328 C28.5054054,32.1344262 28.2189189,32.242623 27.8966216,32.242623 C27.2878378,32.242623 26.8581081,31.8098361 26.8581081,31.1245902 C26.8581081,30.4754098 27.2878378,30.042623 27.8966216,30.0065574 C28.2189189,30.0065574 28.5054054,30.1147541 28.7918919,30.3311475 L29.15,29.7180328 C28.7918919,29.4295082 28.4337838,29.3213115 27.9324324,29.3213115 C26.8222973,29.3213115 26.1060811,30.0786885 26.1060811,31.1245902 L26.1060811,31.1245902 Z M33.0533784,31.1245902 L33.0533784,29.3934426 L32.3013514,29.3934426 L32.3013514,29.8262295 C32.0506757,29.5016393 31.6925676,29.3213115 31.227027,29.3213115 C30.2601351,29.3213115 29.5081081,30.0786885 29.5081081,31.1245902 C29.5081081,32.1704918 30.2601351,32.9278689 31.227027,32.9278689 C31.7283784,32.9278689 32.0864865,32.747541 32.3013514,32.4229508 L32.3013514,32.8557377 L33.0533784,32.8557377 L33.0533784,31.1245902 Z M30.2959459,31.1245902 C30.2959459,30.5114754 30.6898649,30.0065574 31.3344595,30.0065574 C31.9432432,30.0065574 32.372973,30.4754098 32.372973,31.1245902 C32.372973,31.7377049 31.9432432,32.242623 31.3344595,32.242623 C30.6898649,32.2065574 30.2959459,31.7377049 30.2959459,31.1245902 L30.2959459,31.1245902 Z M21.3074324,29.3213115 C20.3047297,29.3213115 19.5885135,30.042623 19.5885135,31.1245902 C19.5885135,32.2065574 20.3047297,32.9278689 21.3432432,32.9278689 C21.8445946,32.9278689 22.3459459,32.7836066 22.7398649,32.4590164 L22.3817568,31.9180328 C22.0952703,32.1344262 21.7371622,32.2786885 21.3790541,32.2786885 C20.9135135,32.2786885 20.447973,32.0622951 20.3405405,31.4491803 L22.8831081,31.4491803 L22.8831081,31.1606557 C22.9189189,30.042623 22.2743243,29.3213115 21.3074324,29.3213115 L21.3074324,29.3213115 Z M21.3074324,29.9704918 C21.772973,29.9704918 22.0952703,30.2590164 22.1668919,30.8 L20.3763514,30.8 C20.447973,30.3311475 20.7702703,29.9704918 21.3074324,29.9704918 L21.3074324,29.9704918 Z M39.9648649,31.1245902 L39.9648649,28.0229508 L39.2128378,28.0229508 L39.2128378,29.8262295 C38.9621622,29.5016393 38.6040541,29.3213115 38.1385135,29.3213115 C37.1716216,29.3213115 36.4195946,30.0786885 36.4195946,31.1245902 C36.4195946,32.1704918 37.1716216,32.9278689 38.1385135,32.9278689 C38.6398649,32.9278689 38.997973,32.747541 39.2128378,32.4229508 L39.2128378,32.8557377 L39.9648649,32.8557377 L39.9648649,31.1245902 Z M37.2074324,31.1245902 C37.2074324,30.5114754 37.6013514,30.0065574 38.2459459,30.0065574 C38.8547297,30.0065574 39.2844595,30.4754098 39.2844595,31.1245902 C39.2844595,31.7377049 38.8547297,32.242623 38.2459459,32.242623 C37.6013514,32.2065574 37.2074324,31.7377049 37.2074324,31.1245902 L37.2074324,31.1245902 Z M12.0682432,31.1245902 L12.0682432,29.3934426 L11.3162162,29.3934426 L11.3162162,29.8262295 C11.0655405,29.5016393 10.7074324,29.3213115 10.2418919,29.3213115 C9.275,29.3213115 8.52297297,30.0786885 8.52297297,31.1245902 C8.52297297,32.1704918 9.275,32.9278689 10.2418919,32.9278689 C10.7432432,32.9278689 11.1013514,32.747541 11.3162162,32.4229508 L11.3162162,32.8557377 L12.0682432,32.8557377 L12.0682432,31.1245902 Z M9.275,31.1245902 C9.275,30.5114754 9.66891892,30.0065574 10.3135135,30.0065574 C10.9222973,30.0065574 11.352027,30.4754098 11.352027,31.1245902 C11.352027,31.7377049 10.9222973,32.242623 10.3135135,32.242623 C9.66891892,32.2065574 9.275,31.7377049 9.275,31.1245902 Z" id="XMLID_1775_" fill="#BCC6CB"></path>
                            <g id="XMLID_328_">
                                <rect id="Rectangle-path" fill="#849096" x="15.4702703" y="3.10163934" width="11.2804054" height="20.4131148"></rect>
                                <path d="M16.1864865,13.3081967 C16.1864865,9.16065574 18.1202703,5.48196721 21.0925676,3.10163934 C18.9081081,1.3704918 16.1506757,0.324590164 13.1425676,0.324590164 C6.01621622,0.324590164 0.250675676,6.13114754 0.250675676,13.3081967 C0.250675676,20.4852459 6.01621622,26.2918033 13.1425676,26.2918033 C16.1506757,26.2918033 18.9081081,25.2459016 21.0925676,23.5147541 C18.1202703,21.1704918 16.1864865,17.4557377 16.1864865,13.3081967 Z" id="XMLID_330_" fill="#BCC6CB"></path>
                                <path d="M41.9702703,13.3081967 C41.9702703,20.4852459 36.2047297,26.2918033 29.0783784,26.2918033 C26.0702703,26.2918033 23.3128378,25.2459016 21.1283784,23.5147541 C24.1364865,21.1344262 26.0344595,17.4557377 26.0344595,13.3081967 C26.0344595,9.16065574 24.1006757,5.48196721 21.1283784,3.10163934 C23.3128378,1.3704918 26.0702703,0.324590164 29.0783784,0.324590164 C36.2047297,0.324590164 41.9702703,6.16721311 41.9702703,13.3081967 Z" id="Shape" fill="#5A6469"></path>
                            </g>
                        </g>
                    </g>
                </g>
            </g>
        </g>
    </g>
</svg>