<?xml version="1.0" encoding="UTF-8"?>
<svg width="25px" height="22px" viewBox="0 0 25 22" version="1.1" xmlns="http://www.w3.org/2000/svg" xmlns:xlink="http://www.w3.org/1999/xlink">
    <title>noun_Shirt_1608560</title>
    <g id="--" stroke="none" stroke-width="1" fill="none" fill-rule="evenodd">
        <g id="Fulfillment-page_v2-Copy" transform="translate(-193.000000, -5564.000000)" fill="#009CE5" fill-rule="nonzero">
            <g id="noun_Shirt_1608560" transform="translate(193.000000, 5564.000000)">
                <path d="M24.7606383,6.51595745 L20.9308511,2.15425532 C19.8404255,0.904255319 18.2712766,0.212765957 16.6223404,0.212765957 L8.40425532,0.212765957 C6.75531915,0.212765957 5.18617021,0.930851064 4.12234043,2.15425532 L0.265957447,6.51595745 C0.132978723,6.67553191 0.0531914894,6.88829787 0.079787234,7.10106383 C0.106382979,7.31382979 0.212765957,7.52659574 0.372340426,7.65957447 L3.64361702,10.2659574 C3.93617021,10.5053191 4.36170213,10.5053191 4.65425532,10.2659574 L5.2393617,9.7606383 L5.15957447,20.2393617 C5.15957447,20.4521277 5.2393617,20.6648936 5.39893617,20.7978723 C5.55851064,20.9574468 5.74468085,21.037234 5.95744681,21.037234 L19.0159574,21.037234 C19.2287234,21.037234 19.4414894,20.9574468 19.5744681,20.7978723 C19.7340426,20.6382979 19.8138298,20.4521277 19.8138298,20.2393617 L19.7340426,9.5212766 L20.9042553,10.2925532 C21.2234043,10.5053191 21.6223404,10.4521277 21.8882979,10.212766 L24.6808511,7.60638298 C25,7.34042553 25.0265957,6.83510638 24.7606383,6.51595745 Z M10.3723404,1.80851064 L14.6276596,1.80851064 C14.3085106,2.68617021 13.4574468,3.29787234 12.5,3.29787234 C11.5425532,3.29787234 10.6914894,2.68617021 10.3723404,1.80851064 Z M17.0212766,10 C17.0212766,10.2659574 16.8882979,10.5319149 16.6755319,10.6648936 L15.4787234,11.4361702 C15.3457447,11.5159574 15.1861702,11.5691489 15.0265957,11.5691489 C14.8670213,11.5691489 14.7074468,11.5159574 14.5744681,11.4361702 L13.4308511,10.6648936 C13.2180851,10.5053191 13.0851064,10.2659574 13.0851064,10 L13.0851064,7.15425532 C13.0851064,6.99468085 13.1914894,6.88829787 13.3510638,6.88829787 L16.7553191,6.88829787 C16.9148936,6.88829787 17.0212766,6.99468085 17.0212766,7.15425532 L17.0212766,10 Z" id="Shape"></path>
            </g>
        </g>
    </g>
</svg>