<?xml version="1.0" encoding="UTF-8"?>
<svg width="17px" height="22px" viewBox="0 0 17 22" version="1.1" xmlns="http://www.w3.org/2000/svg" xmlns:xlink="http://www.w3.org/1999/xlink">
    <title>Group 11 Copy 2</title>
    <g id="--" stroke="none" stroke-width="1" fill="none" fill-rule="evenodd">
        <g id="Fulfillment-page_v2-Copy" transform="translate(-413.000000, -2646.000000)" fill="#009CE5" fill-rule="nonzero">
            <g id="USA" transform="translate(193.000000, 2611.000000)">
                <g id="Group-36" transform="translate(200.000000, 35.000000)">
                    <g id="Group-11-Copy-2" transform="translate(20.000000, 0.000000)">
                        <path d="M16.5851814,5.5551011 C15.8004373,3.12787224 13.7337859,1.15101528 11.1963054,0.400367647 C10.3068793,0.137584674 9.39129358,0 8.50186745,0 C6.6837758,0 4.93112672,0.537994026 3.46618956,1.5890008 C1.29485621,3.11536075 0,5.5551011 0,8.13246783 C0,9.90905756 0.588590823,11.598192 1.70037349,13.0119902 L8.50186745,22 L15.3033614,13.0119902 C16.9644519,10.8849954 17.4353682,8.170044 16.5851814,5.5551011 Z M8.5,13 C6.01857143,13 4,10.9814286 4,8.5 C4,6.01857143 6.01857143,4 8.5,4 C10.9814286,4 13,6.01857143 13,8.5 C13,10.9814286 10.9814286,13 8.5,13 Z" id="Shape"></path>
                    </g>
                </g>
            </g>
        </g>
    </g>
</svg>