<?xml version="1.0" encoding="UTF-8"?>
<svg width="25px" height="33px" viewBox="0 0 25 33" version="1.1" xmlns="http://www.w3.org/2000/svg" xmlns:xlink="http://www.w3.org/1999/xlink">
    <title>Group 9</title>
    <g id="--" stroke="none" stroke-width="1" fill="none" fill-rule="evenodd">
        <g id="Fulfillment-page_v2-Copy" transform="translate(-209.000000, -2642.000000)" fill-rule="nonzero">
            <g id="USA" transform="translate(193.000000, 2611.000000)">
                <g id="Group-37" transform="translate(0.000000, 31.000000)">
                    <g id="Group-9" transform="translate(16.000000, 0.000000)">
                        <path d="M20.5851814,9.5551011 C19.8004373,7.12787224 17.7337859,5.15101528 15.1963054,4.40036765 C14.3068793,4.13758467 13.3912936,4 12.5018674,4 C10.6837758,4 8.93112672,4.53799403 7.46618956,5.5890008 C5.29485621,7.11536075 4,9.5551011 4,12.1324678 C4,13.9090576 4.58859082,15.598192 5.70037349,17.0119902 L12.5018674,26 L19.3033614,17.0119902 C20.9644519,14.8849954 21.4353682,12.170044 20.5851814,9.5551011 Z M12.5,17 C10.0185714,17 8,14.9814286 8,12.5 C8,10.0185714 10.0185714,8 12.5,8 C14.9814286,8 17,10.0185714 17,12.5 C17,14.9814286 14.9814286,17 12.5,17 Z" id="Shape" fill="#009CE5"></path>
                        <path d="M12.5018674,-1.42108547e-14 C13.7770854,-1.42108547e-14 15.073734,0.193221744 16.3309933,0.564682122 C20.1206113,1.68574211 23.1958692,4.62738244 24.3891764,8.31832223 C25.6096524,12.0721739 24.9819076,16.0436187 22.7107572,19.1381921 L12.5018674,32.6287837 L2.55611727,19.4845704 C0.891819487,17.3681664 -3.8191672e-13,14.8089058 -3.8191672e-13,12.1324678 C-3.8191672e-13,8.24175444 1.93752242,4.58601019 5.13445026,2.33892514 C7.27402949,0.80390211 9.83969176,-1.42108547e-14 12.5018674,-1.42108547e-14 Z M12.5018674,4 L12.2044614,4.00481474 L11.8235848,4.02516968 C10.250109,4.14251433 8.74800958,4.66936987 7.46618956,5.5890008 C5.29485621,7.11536075 4,9.5551011 4,12.1324678 C4,13.7980207 4.51731615,15.3867086 5.49806136,16.7437223 L12.5018674,26 L19.4830225,16.7732729 C20.4150224,15.4875819 20.9273708,14.0043684 20.9928214,12.4667967 L20.9971738,12.2789319 C21.0156718,11.3787616 20.8796906,10.460931 20.5851814,9.5551011 C19.8004373,7.12787224 17.7337859,5.15101528 15.1963054,4.40036765 C14.6695804,4.24474552 14.1336808,4.1330317 13.5994732,4.06779875 L13.2243398,4.02962985 L12.8697881,4.0079194 L12.5018674,4 Z" id="Shape-Copy" fill="#FFFFFF"></path>
                    </g>
                </g>
            </g>
        </g>
    </g>
</svg>