<?xml version="1.0" encoding="UTF-8"?>
<svg width="24px" height="24px" viewBox="0 0 24 24" version="1.1" xmlns="http://www.w3.org/2000/svg" xmlns:xlink="http://www.w3.org/1999/xlink">
    <title>noun_rate_3082108</title>
    <g id="--" stroke="none" stroke-width="1" fill="none" fill-rule="evenodd">
        <g id="Fulfillment-page_v2-Copy" transform="translate(-888.000000, -5563.000000)" fill="#009CE5" fill-rule="nonzero">
            <g id="Group" transform="translate(888.000000, 5563.000000)">
                <path d="M20.7920792,8.87825046 L16.5814384,8.87825046 C16.2876727,8.87825046 16.0591883,8.58448482 16.1244696,8.29071918 L17.4300947,3.65575019 C17.8870634,2.12164074 16.7120009,0.620171907 15.1452508,0.620171907 C14.3618757,0.620171907 13.6764226,1.17506256 13.5458601,1.92579698 L13.5458601,1.99107823 C13.2847351,3.19878142 12.8930475,4.4064846 12.2728756,5.51626591 C12.240235,5.61418779 12.1749538,5.67946905 12.1423131,5.77739093 C11.195735,7.34414101 9.79218801,8.61712545 8.16015668,9.46578174 L8.16015668,21.6080949 C10.4776412,22.293548 12.6319225,22.6199543 15.1126102,22.6199543 L19.6170166,22.6199543 C21.1184855,22.6199543 22.3914699,21.5428136 22.6199543,20.0413448 L23.8276575,12.3707975 C24.0887825,10.5429224 22.6525949,8.87825046 20.7920792,8.87825046 Z" id="Path"></path>
                <path d="M5.67946905,8.45392232 L0.750734414,8.45392232 C0.326406267,8.45392232 0,8.78032858 0,9.20465673 L0,22.1303449 C0,22.554673 0.326406267,22.8810793 0.750734414,22.8810793 L5.67946905,22.8810793 C6.10379719,22.8810793 6.43020346,22.554673 6.43020346,22.1303449 L6.43020346,9.20465673 C6.43020346,8.81296921 6.07115657,8.45392232 5.67946905,8.45392232 Z M3.19878142,20.987923 C2.57860951,20.987923 2.05635948,20.4656729 2.05635948,19.845501 C2.05635948,19.2253291 2.57860951,18.7030791 3.19878142,18.7030791 C3.81895332,18.7030791 4.34120335,19.2253291 4.34120335,19.845501 C4.34120335,20.4656729 3.81895332,20.987923 3.19878142,20.987923 Z" id="Shape"></path>
            </g>
        </g>
    </g>
</svg>