<?xml version="1.0" encoding="UTF-8"?>
<svg width="36px" height="22px" viewBox="0 0 36 22" version="1.1" xmlns="http://www.w3.org/2000/svg" xmlns:xlink="http://www.w3.org/1999/xlink">
    <title>noun_Shipping_368415</title>
    <g id="--" stroke="none" stroke-width="1" fill="none" fill-rule="evenodd">
        <g id="Fulfillment-page_v2-Copy" transform="translate(-540.000000, -5564.000000)" fill="#009CE5" fill-rule="nonzero">
            <g id="noun_Shipping_368415" transform="translate(540.000000, 5564.000000)">
                <path d="M33.8272,13.5872 L33.8272,8.5184 C33.8272,7.1456 32.736,6.0544 31.3632,6.0544 L28.0896,5.7728 L25.168,1.408 C25.1328,1.3728 25.0976,1.3024 25.0624,1.2672 C24.6048,0.6688 23.9008,0.2464 23.056,0.2464 L21.824,0.2464 L12.32,0.2464 C10.9472,0.2464 9.856,1.3376 9.856,2.7104 L9.856,13.6224 C9.2576,13.7632 8.8,14.3264 8.8,14.9952 L8.8,16.7552 C8.8,17.5648 9.4336,18.1632 10.208,18.1632 L12.2144,18.1632 C12.672,19.7472 14.1152,20.8736 15.84,20.8736 C17.5648,20.8736 19.008,19.712 19.4656,18.1632 L21.824,18.1632 L24.6752,18.1632 C25.1328,19.7472 26.576,20.8736 28.3008,20.8736 C30.0256,20.8736 31.4688,19.712 31.9264,18.1632 L33.6512,18.1632 C34.4608,18.1632 35.0592,17.5296 35.0592,16.7552 L35.0592,14.9952 C35.0592,14.256 34.496,13.6576 33.8272,13.5872 Z M15.8048,18.9728 C14.7488,18.9728 13.904,18.0928 13.904,17.072 C13.904,16.0512 14.784,15.1712 15.8048,15.1712 C16.8608,15.1712 17.7056,16.0512 17.7056,17.072 C17.7056,18.128 16.8608,18.9728 15.8048,18.9728 Z M28.3008,18.9728 C27.2448,18.9728 26.4,18.0928 26.4,17.072 C26.4,16.0512 27.28,15.1712 28.3008,15.1712 C29.3568,15.1712 30.2016,16.0512 30.2016,17.072 C30.1664,18.128 29.3216,18.9728 28.3008,18.9728 Z M7.0048,5.3152 L1.0912,5.3152 C0.5632,5.3152 0.1408,4.8928 0.1408,4.3648 C0.1408,3.8368 0.5632,3.4144 1.0912,3.4144 L7.0048,3.4144 C7.5328,3.4144 7.9552,3.8368 7.9552,4.3648 C7.9552,4.8928 7.5328,5.3152 7.0048,5.3152 Z M7.9552,7.7792 C7.9552,8.3072 7.5328,8.7296 7.0048,8.7296 L2.7808,8.7296 C2.2528,8.7296 1.8304,8.3072 1.8304,7.7792 C1.8304,7.2512 2.2528,6.8288 2.7808,6.8288 L7.0048,6.8288 C7.5328,6.8288 7.9552,7.2512 7.9552,7.7792 Z M7.9552,11.2288 C7.9552,11.7568 7.5328,12.1792 7.0048,12.1792 L4.3648,12.1792 C3.8368,12.1792 3.4144,11.7568 3.4144,11.2288 C3.4144,10.7008 3.8368,10.2784 4.3648,10.2784 L7.0048,10.2784 C7.5328,10.2784 7.9552,10.7008 7.9552,11.2288 Z" id="Shape"></path>
            </g>
        </g>
    </g>
</svg>