<svg xmlns="http://www.w3.org/2000/svg" viewBox="0 0 195.66 154.46"><defs><style>.cls-1{fill:#fff;}.cls-2{fill:#219de5;}</style></defs><title>swaggin_white</title><g id="Layer_2" data-name="Layer 2"><g id="Layer_1-2" data-name="Layer 1"><path class="cls-1" d="M6.06,141.39a10,10,0,0,1-4.35-3.3A9,9,0,0,1,0,132.83H8.12a3.94,3.94,0,0,0,1.2,2.65,3.87,3.87,0,0,0,2.68.91,4.18,4.18,0,0,0,2.68-.78,2.61,2.61,0,0,0,1-2.16,2.56,2.56,0,0,0-.78-1.92A6.31,6.31,0,0,0,13,130.29a31.06,31.06,0,0,0-3.23-1.11,35.28,35.28,0,0,1-4.95-1.87,9.14,9.14,0,0,1-3.3-2.76,7.7,7.7,0,0,1-1.38-4.77,8.2,8.2,0,0,1,3.17-6.84,13,13,0,0,1,8.25-2.47,13.16,13.16,0,0,1,8.34,2.47,8.86,8.86,0,0,1,3.39,6.89H15a3.23,3.23,0,0,0-1.11-2.39,3.93,3.93,0,0,0-2.63-.87,3.28,3.28,0,0,0-2.23.74,2.65,2.65,0,0,0-.85,2.12,2.62,2.62,0,0,0,1.43,2.36A23.35,23.35,0,0,0,14,123.6a41.44,41.44,0,0,1,4.93,2,9.39,9.39,0,0,1,3.28,2.72,7.29,7.29,0,0,1,1.38,4.59,9,9,0,0,1-1.36,4.86,9.53,9.53,0,0,1-3.95,3.48,13.51,13.51,0,0,1-6.11,1.29A16.1,16.1,0,0,1,6.06,141.39Z"/><path class="cls-1" d="M64,117.31,57.3,142.2H48.87l-3.92-16.14L40.89,142.2H32.51l-6.78-24.88h7.62l3.52,17.79,4.19-17.79h8.07L53.37,135l3.48-17.7Z"/><path class="cls-1" d="M66.86,123a10.81,10.81,0,0,1,3.95-4.46A10.3,10.3,0,0,1,76.38,117,9.58,9.58,0,0,1,81,118a7.89,7.89,0,0,1,3.05,2.81v-3.52h7.63V142.2H84.05v-3.52a8.24,8.24,0,0,1-3.1,2.81,9.57,9.57,0,0,1-4.62,1.07A10.11,10.11,0,0,1,70.81,141a10.93,10.93,0,0,1-3.95-4.5,16.42,16.42,0,0,1,0-13.49Zm15.61,2.27a5.36,5.36,0,0,0-7.71,0,6.15,6.15,0,0,0-1.58,4.48,6.31,6.31,0,0,0,1.58,4.53,5.31,5.31,0,0,0,7.71,0,7.2,7.2,0,0,0,0-9Z"/><path class="cls-1" d="M111.28,118a7.89,7.89,0,0,1,3.05,2.81v-3.52H122v24.84a14,14,0,0,1-1.36,6.22,10.37,10.37,0,0,1-4.15,4.44,13.42,13.42,0,0,1-6.93,1.65,14.42,14.42,0,0,1-9-2.61,9.84,9.84,0,0,1-3.92-7.07h7.54a3.61,3.61,0,0,0,1.69,2.25,6.18,6.18,0,0,0,3.3.83,5.19,5.19,0,0,0,3.77-1.36,5.83,5.83,0,0,0,1.4-4.35v-3.52a8.46,8.46,0,0,1-3.08,2.83,9.28,9.28,0,0,1-4.59,1.09,10.19,10.19,0,0,1-5.57-1.58,10.93,10.93,0,0,1-3.95-4.5,16.42,16.42,0,0,1,0-13.49,10.81,10.81,0,0,1,3.95-4.46,10.3,10.3,0,0,1,5.57-1.56A9.58,9.58,0,0,1,111.28,118Zm1.47,7.22a5.36,5.36,0,0,0-7.71,0,6.15,6.15,0,0,0-1.58,4.48,6.31,6.31,0,0,0,1.58,4.53,5.31,5.31,0,0,0,7.71,0,7.2,7.2,0,0,0,0-9Z"/><path class="cls-1" d="M141.55,118a7.89,7.89,0,0,1,3.05,2.81v-3.52h7.63v24.84a14,14,0,0,1-1.36,6.22,10.37,10.37,0,0,1-4.15,4.44,13.42,13.42,0,0,1-6.93,1.65,14.42,14.42,0,0,1-9-2.61,9.84,9.84,0,0,1-3.92-7.07h7.54a3.61,3.61,0,0,0,1.69,2.25,6.18,6.18,0,0,0,3.3.83,5.19,5.19,0,0,0,3.77-1.36,5.83,5.83,0,0,0,1.4-4.35v-3.52a8.46,8.46,0,0,1-3.08,2.83,9.28,9.28,0,0,1-4.59,1.09,10.19,10.19,0,0,1-5.57-1.58,10.93,10.93,0,0,1-3.95-4.5,16.42,16.42,0,0,1,0-13.49,10.81,10.81,0,0,1,3.95-4.46,10.3,10.3,0,0,1,5.57-1.56A9.58,9.58,0,0,1,141.55,118Zm1.47,7.22a5.36,5.36,0,0,0-7.71,0,6.15,6.15,0,0,0-1.58,4.48,6.31,6.31,0,0,0,1.58,4.53,5.31,5.31,0,0,0,7.71,0,7.2,7.2,0,0,0,0-9Z"/><path class="cls-1" d="M158.32,113.55a3.83,3.83,0,0,1-1.27-2.92,3.88,3.88,0,0,1,1.27-3,4.62,4.62,0,0,1,3.28-1.18,4.57,4.57,0,0,1,3.23,1.18,3.88,3.88,0,0,1,1.27,3,3.83,3.83,0,0,1-1.27,2.92,4.56,4.56,0,0,1-3.23,1.18A4.62,4.62,0,0,1,158.32,113.55Zm7.07,3.77V142.2h-7.62V117.31Z"/><path class="cls-1" d="M193.05,119.88a11,11,0,0,1,2.61,7.78V142.2h-7.58V128.68a5.46,5.46,0,0,0-1.29-3.88,5.07,5.07,0,0,0-7,0,5.46,5.46,0,0,0-1.29,3.88V142.2h-7.62V117.31h7.63v3.3a8,8,0,0,1,3.12-2.61,9.91,9.91,0,0,1,4.41-1A9,9,0,0,1,193.05,119.88Z"/><path class="cls-2" d="M96.87,62.4a31.2,31.2,0,1,1,31.2-31.2h-11.7a19.5,19.5,0,1,0-19.5,19.5Z"/><path class="cls-2" d="M96.87,85.92a31.24,31.24,0,0,1-31.2-31.2h11.7a19.5,19.5,0,1,0,19.5-19.5V23.52a31.2,31.2,0,1,1,0,62.4Z"/></g></g></svg>