<?xml version="1.0" encoding="UTF-8"?>
<svg width="25px" height="21px" viewBox="0 0 25 21" version="1.1" xmlns="http://www.w3.org/2000/svg" xmlns:xlink="http://www.w3.org/1999/xlink">
    <title>group</title>
    <g id="--" stroke="none" stroke-width="1" fill="none" fill-rule="evenodd">
        <g id="Fulfillment-page_v2-Copy" transform="translate(-551.000000, -5333.000000)" fill="#009CE5" fill-rule="nonzero">
            <g id="group" transform="translate(551.000000, 5333.000000)">
                <path d="M20.9331995,11.2442661 C22.8805428,11.2442661 24.464784,12.828555 24.464784,14.7758505 L24.464784,14.7758505 L24.464784,18.6740252 C24.464784,19.8424121 23.5142393,20.7930046 22.3458047,20.7930046 L22.3458047,20.7930046 L19.2178899,20.7930046 C19.2963016,20.571961 19.3394018,20.334289 19.3394018,20.0866781 L19.3394018,20.0866781 L19.3394018,12.9359709 C19.3394018,12.3420776 19.2340405,11.7722668 19.0411888,11.2442661 L19.0411888,11.2442661 Z M5.42364297,11.2443138 C5.23079128,11.7723146 5.12543005,12.3420776 5.12543005,12.9360187 L5.12543005,12.9360187 L5.12543005,20.0867259 C5.12543005,20.3343368 5.1685302,20.571961 5.2469419,20.7931002 L5.2469419,20.7931002 L2.11897936,20.7931002 C0.950544725,20.7931002 6.56363852e-13,19.8425076 6.56363852e-13,18.6741208 L6.56363852e-13,18.6741208 L6.56363852e-13,14.7759461 C6.56363852e-13,12.8286028 1.58428899,11.2443138 3.53163226,11.2443138 L3.53163226,11.2443138 Z M14.3951166,9.40438647 C16.3424599,9.40438647 17.9267489,10.9886755 17.9267489,12.9360187 L17.9267489,12.9360187 L17.9267489,20.0867259 C17.9267489,20.4768253 17.6105218,20.7930524 17.2204224,20.7930524 L17.2204224,20.7930524 L7.2444094,20.7930524 C6.85431002,20.7930524 6.53808295,20.4767775 6.53808295,20.0867259 L6.53808295,20.0867259 L6.53808295,12.9360187 C6.53808295,10.9886755 8.12237194,9.40438647 10.0697152,9.40438647 L10.0697152,9.40438647 Z M4.77436927,3.99890099 C6.52585054,3.99890099 7.95073586,5.4238341 7.95073586,7.17526758 C7.95073586,7.71430619 7.81536697,8.22219037 7.57740826,8.66738341 C7.23838876,9.30170107 6.69051032,9.80810398 6.02604167,10.09418 C5.64172401,10.2596044 5.21865443,10.3516342 4.77436927,10.3516342 C3.022888,10.3516342 1.59800268,8.92674885 1.59800268,7.17526758 C1.59800268,5.42378631 3.022888,3.99890099 4.77436927,3.99890099 Z M19.6904625,3.99890099 C21.4419438,3.99890099 22.8668291,5.42378631 22.8668291,7.17526758 C22.8668291,8.92674885 21.4419438,10.3516342 19.6904625,10.3516342 C19.2461774,10.3516342 18.8231078,10.2596044 18.4387901,10.09418 C17.7743215,9.80815176 17.226443,9.30174885 16.8874235,8.66738341 C16.6494648,8.22223815 16.5140959,7.71435398 16.5140959,7.17526758 C16.5140959,5.42378631 17.9389813,3.99890099 19.6904625,3.99890099 Z M12.2324159,0.0401376147 C14.5743502,0.0401376147 16.4796445,1.94547974 16.4796445,4.28741399 C16.4796445,5.87590787 15.6029243,7.26333142 14.3080562,7.99173356 C13.6939029,8.33720375 12.9858563,8.53464258 12.2324159,8.53464258 C11.4789755,8.53464258 10.7709289,8.33720375 10.1567756,7.99173356 C8.86195528,7.26333142 7.98518731,5.87595566 7.98518731,4.28741399 C7.98518731,1.94543196 9.89048165,0.0401376147 12.2324159,0.0401376147 Z" id="Combined-Shape"></path>
            </g>
        </g>
    </g>
</svg>